<?xml version="1.0" standalone="no"?>
<!DOCTYPE svg PUBLIC "-//W3C//DTD SVG 1.1//EN" "http://www.w3.org/Graphics/SVG/1.1/DTD/svg11.dtd" >
<svg xmlns="http://www.w3.org/2000/svg" xmlns:xlink="http://www.w3.org/1999/xlink" version="1.1">
<metadata></metadata>
<defs>
<font id="hp_simplified_lightregular" horiz-adv-x="1097" >
<font-face units-per-em="2048" ascent="1665" descent="-383" />
<missing-glyph horiz-adv-x="430" />
<glyph horiz-adv-x="0" />
<glyph horiz-adv-x="682" />
<glyph unicode=" "  horiz-adv-x="430" />
<glyph unicode="&#x09;" horiz-adv-x="430" />
<glyph unicode="&#xa0;" horiz-adv-x="430" />
<glyph unicode="!" horiz-adv-x="481" d="M143 86q0 -51 23 -74q27 -20 74 -20q48 0 75 20q23 20 23 74t-25 76q-20 20 -73 20q-52 0 -74 -22q-23 -20 -23 -74zM182 932q0 -39 1 -122.5t1 -127.5q3 -146 11 -250q0 -31 30 -31h60q12 144 12 269q2 84 2 262v457q0 30 -31 30h-86v-487z" />
<glyph unicode="&#x22;" horiz-adv-x="630" d="M113 1419q3 -131 6 -213q2 -29 5 -86t5 -86q6 -30 31 -30h61q9 87 15 184q6 99 6 201q0 30 -31 30h-98zM389 1419q3 -131 6 -213q2 -28 5.5 -85.5t5.5 -86.5q6 -30 30 -30h62q6 61 14 184q6 99 6 201q0 30 -31 30h-98z" />
<glyph unicode="#" horiz-adv-x="1169" d="M113 418q0 -31 30 -31h129l-36 -356q0 -31 30 -31h78l39 387h340l-37 -356q0 -31 31 -31h78l39 387h223v72q0 30 -31 30h-182l43 418h170v72q0 31 -31 31h-129l35 327q0 31 -31 31h-78l-37 -358h-340l35 327q0 31 -30 31h-78l-37 -358h-223v-72q0 -31 30 -31h183 l-43 -418h-170v-71zM393 489l43 418h340l-43 -418h-340z" />
<glyph unicode="$" d="M143 1038q0 -87 29 -153q29 -60 78 -103q49 -40 110 -67q25 -9 72 -25.5t62 -21.5l-43 -562q-85 5 -177 19q-26 5 -65 12t-53 10v-59q0 -26 26 -39q42 -18 107 -29q51 -8 153 -16l-14 -180q0 -25 29 -25h65l17 203q81 0 170 21q73 19 131 65q58 48 86 115q30 74 30 172 q0 103 -28 160q-27 64 -76 104q-53 47 -113 68q-58 24 -141 47l41 528q67 0 135 -12q96 -12 129 -19v56q0 30 -26 39q-40 16 -101 22q-63 9 -131 12l14 168q3 25 -28 25h-66l-14 -191q-213 0 -311 -94q-97 -90 -97 -250zM260 1038q0 112 64 176q65 65 219 68l-39 -500 q-50 16 -113 43q-43 22 -76 52q-29 32 -43 67q-12 40 -12 94zM547 104l41 535q69 -20 121 -45q45 -19 77 -51q29 -26 41 -70q13 -44 13 -96q0 -61 -15 -111q-12 -51 -47 -86q-31 -34 -90 -55q-56 -18 -141 -21z" />
<glyph unicode="%" horiz-adv-x="1540" d="M88 1022q0 -92 21 -178q20 -70 57 -119q35 -44 88 -66q58 -20 111 -20q57 0 112 20q46 18 86 68q43 56 58 119q20 70 20 176q0 108 -20 178q-17 68 -58 119q-36 47 -88 65q-50 21 -110 21q-61 0 -113 -21q-49 -18 -86 -67q-36 -44 -57 -119q-21 -86 -21 -176zM190 1022 q0 144 37 217q36 74 138 74t139 -76q35 -69 35 -215q0 -142 -37 -217q-38 -74 -137 -74q-101 0 -140 76q-35 71 -35 215zM309 27q0 -27 31 -27h66l817 1333q8 13 8 27q0 26 -31 26h-65l-818 -1333q-8 -16 -8 -26zM899 369q0 -93 21 -179q20 -69 57 -118q35 -44 88 -66 q58 -20 111 -20q57 0 112 20q46 18 86 68q43 56 58 119q20 70 20 176q0 108 -20 178q-17 68 -58 119q-36 47 -88 65q-50 21 -110 21t-113 -21q-49 -18 -86 -67q-36 -44 -57 -119q-21 -86 -21 -176zM1001 369q0 144 37 217q36 73 138 73t139 -75q35 -69 35 -215 q0 -142 -37 -217q-38 -74 -137 -74q-101 0 -140 76q-35 71 -35 215z" />
<glyph unicode="&#x26;" horiz-adv-x="1286" d="M102 342q0 -63 23 -137q26 -71 70 -117q53 -53 127 -82q82 -31 192 -31q158 0 270 62q113 62 191 166q41 -55 59 -88q22 -32 53 -97q12 -18 27 -18h111q-15 36 -72 127q-74 119 -113 170q48 78 80 174q31 85 58 191q6 24 6 38q0 13 -6 19q-4 6 -23 6h-74 q-15 -91 -45 -180q-33 -103 -67 -166q-71 88 -170 184q-68 71 -199 182q82 43 141 84q59 42 97 89q37 45 55 98q18 56 18 121q0 59 -18 114q-19 59 -57 97q-39 41 -105 65q-67 25 -160 25q-96 0 -161 -29q-65 -27 -107 -72t-59 -100q-17 -52 -17 -111q0 -48 13 -102 q13 -50 34 -88q25 -46 60 -86q25 -29 88 -92q-98 -54 -141 -84q-56 -39 -101 -90q-39 -47 -59 -107q-19 -62 -19 -135zM219 348q0 59 17 115q18 51 51 86q37 40 86 72q31 21 125 71q126 -108 223 -205q102 -98 188 -208q-69 -93 -159 -148q-87 -53 -220 -53q-50 0 -118 14 q-51 14 -99 47q-43 34 -69 82q-25 55 -25 127zM340 1126q0 58 18 99q16 38 52 67q33 26 73 37q36 10 90 10q113 0 170 -51q60 -48 60 -151q0 -59 -17 -103q-15 -44 -51 -80q-31 -34 -86 -71q-48 -32 -125 -74q-35 33 -88 86q-32 34 -57 74q-19 35 -31 71q-8 33 -8 86z" />
<glyph unicode="'" horiz-adv-x="354" d="M113 1419q3 -131 6 -213q2 -29 5 -86t5 -86q6 -30 31 -30h61q9 87 15 184q6 99 6 201q0 30 -31 30h-98z" />
<glyph unicode="(" horiz-adv-x="571" d="M145 702q0 -232 60 -446q63 -211 190 -397q3 -3 7.5 -8t7.5 -8t6 -5q12 -6 30 -6h70q-59 110 -115 229q-42 95 -75 207q-31 120 -43 205q-13 114 -13 229q0 116 13 230q10 91 41 198q36 120 69 191q41 92 101 207q6 12 6 20q0 25 -33 25h-55q-72 -108 -123 -209 q-51 -109 -84 -211q-30 -105 -45 -219q-15 -139 -15 -232z" />
<glyph unicode=")" horiz-adv-x="571" d="M55 1573q68 -124 115 -230q51 -107 76 -206q32 -109 43 -205q12 -84 12 -230q0 -124 -12 -229q-12 -102 -41 -199q-25 -88 -70 -190q-72 -157 -100 -207q-6 -12 -6 -20q0 -25 32 -25h56q75 107 123 209q55 111 84 211q32 101 45 219q14 106 14 231q0 250 -59 447 q-59 211 -191 397q-9 16 -20 21q-9 6 -31 6h-70z" />
<glyph unicode="*" horiz-adv-x="808" d="M61 1130l287 -73l-155 -187q-18 -22 -21 -32q-6 -14 10 -27l64 -47l160 250l129 -205q10 -15 24 -29q14 -10 29 2l63 47l-186 228l237 59q14 4 35 14q10 8 4 27l-24 76l-275 -109l17 244q3 26 -2 37q-3 14 -25 14h-80l19 -295l-228 93q-20 10 -34 10q-14 3 -23 -21z" />
<glyph unicode="+" d="M154 686q0 -31 30 -31h314v-336q0 -30 30 -30h74v366h344v68q0 31 -31 31h-313v336q0 30 -31 30h-73v-366h-344v-68z" />
<glyph unicode="," horiz-adv-x="456" d="M131 86q0 -41 19 -66q15 -17 53 -24l-66 -203q-4 -16 -4 -22q0 -21 23 -21h55l78 195q16 41 26 71q11 34 11 70q0 54 -25 76q-20 20 -74 20q-51 0 -73 -22q-23 -20 -23 -74z" />
<glyph unicode="-" horiz-adv-x="784" d="M98 539q0 -31 31 -31h557v72q0 30 -31 30h-557v-71z" />
<glyph unicode="." horiz-adv-x="456" d="M131 86q0 -51 23 -74q27 -20 73 -20q49 0 76 20q23 20 23 74t-25 76q-20 20 -74 20q-51 0 -73 -22q-23 -20 -23 -74z" />
<glyph unicode="/" horiz-adv-x="706" d="M70 -125q-12 -45 28 -45h74l465 1698q12 45 -29 45h-73z" />
<glyph unicode="0" d="M106 702q0 -197 29 -348q30 -136 86 -223q56 -79 137 -117q77 -32 191 -32q109 0 190 34q87 38 140 117q57 83 84 221q28 132 28 348q0 211 -30 349q-30 142 -87 219q-55 82 -137 116q-70 33 -188 33q-109 0 -189 -35q-83 -35 -139 -114q-56 -80 -86 -221 q-29 -133 -29 -347zM231 702q0 128 15 271q16 125 49 190q37 75 96 111q61 37 158 37t158 -37t98 -113q37 -73 49 -188q12 -91 12 -271q0 -163 -14 -272q-12 -114 -49 -190q-40 -79 -96 -113q-61 -37 -158 -37t-158 37q-59 36 -98 113q-33 67 -49 192q-13 127 -13 270z" />
<glyph unicode="1" d="M184 1176q0 -31 29 -31q15 0 35 10l295 125v-1249q0 -31 30 -31h89v1389q0 30 -35 30q-13 0 -31 -6q-37 -12 -53 -20q-41 -16 -97 -41q-22 -9 -157 -72l-105 -47v-57z" />
<glyph unicode="2" d="M152 31q0 -31 30 -31h752v76q0 30 -31 30h-635q3 100 35 185q33 78 84 145q48 61 113 117q50 43 125 96q87 64 123 92q51 38 96 93q39 44 65 108q23 59 23 135q0 162 -103 252q-100 90 -305 90q-119 0 -198 -16q-87 -15 -154 -39v-53q0 -11 6 -23q7 -10 25 -10 q31 0 108 18q75 17 187 17q88 0 153 -19q64 -19 97 -49q36 -29 49 -78q14 -41 14 -94q0 -61 -20 -108q-19 -49 -58 -91q-37 -43 -98 -86q-22 -16 -68.5 -49.5t-64.5 -46.5q-76 -56 -144 -117q-61 -58 -110 -131q-44 -67 -72 -155q-24 -86 -24 -189v-69z" />
<glyph unicode="3" d="M113 63q0 -31 28 -43q23 -9 68 -18q15 -2 44.5 -5t43.5 -5q54 -3 86 -8q29 -2 61 -2q214 0 338 100q123 100 123 313q0 145 -59 221q-61 83 -174 119q99 49 147 127q51 77 51 199q0 162 -98 260q-95 98 -301 98q-119 0 -195 -16q-91 -16 -145 -37v-53q0 -11 6 -23 q7 -10 25 -10q24 0 102 16q69 17 182 17q170 0 238 -68q68 -65 68 -184q0 -41 -13 -98q-13 -52 -45 -93q-26 -38 -90 -69q-59 -27 -149 -27h-125v-76q0 -30 30 -30h95q70 0 137 -13q59 -12 102 -41q46 -32 66 -84q22 -48 22 -137q0 -67 -18 -125q-19 -58 -57 -96 q-35 -35 -109 -61q-68 -21 -166 -21q-92 0 -178 12q-51 7 -141 21v-60z" />
<glyph unicode="4" d="M92 389q0 -31 31 -31h598v-327q0 -31 31 -31h86v358h147v74q0 31 -31 31h-116v893q0 30 -31 30h-105q-116 -86 -221 -206q-97 -114 -176 -240q-72 -115 -131 -250q-53 -123 -82 -229v-72zM203 463q23 87 71 199q51 115 111 215q64 106 150 208q89 110 186 185v-807h-518z " />
<glyph unicode="5" d="M156 63q0 -31 28 -43q22 -8 66 -18q15 -2 44.5 -5t43.5 -5q57 -3 90 -8q31 -2 76 -2q70 0 155 20q86 23 142 68q64 49 102 133q39 82 39 215q0 88 -24 162q-26 80 -76 127q-50 53 -144 84q-88 30 -217 30h-174l29 459h561v76q0 30 -31 30h-630l-41 -641q0 -30 30 -30h246 q83 0 147 -15q69 -12 109 -47q47 -35 70 -94q22 -54 22 -147q0 -159 -78 -240q-79 -82 -272 -82q-91 0 -176 12q-80 11 -137 21v-60z" />
<glyph unicode="6" d="M129 678q0 -150 23 -291q25 -134 71 -219q54 -91 137 -139q81 -47 218 -47q104 0 186 32q81 35 129 92q49 57 74 144q22 78 22 180q0 221 -102 320q-99 102 -301 102q-115 0 -197 -31q-88 -33 -135 -65q3 157 27 262q24 106 71 172q51 69 113 94q61 27 158 27 q98 0 163 -11q100 -12 125 -18v57q0 35 -28 43q-34 13 -60 17q-25 6 -73 10q-38 6 -78 6q-25 2 -70 2q-241 0 -356 -176q-117 -175 -117 -563zM254 590v55q67 49 152 74q82 26 176 26q86 0 141 -24q59 -25 88 -68q31 -39 43 -98q12 -55 12 -123q0 -172 -69 -256 q-68 -86 -217 -86q-85 0 -156 33q-59 33 -100 98q-36 65 -54 156q-16 98 -16 213z" />
<glyph unicode="7" d="M115 1311q0 -31 30 -31h658q-63 -127 -117 -244q-94 -211 -125 -288q-58 -142 -117 -304q-43 -118 -90 -288q-22 -90 -22 -125q0 -31 30 -31h82q33 149 76 293q55 178 109 323q66 173 139 338q89 193 166 338v60q0 22 -12 28t-29 6h-778v-75z" />
<glyph unicode="8" d="M106 377q0 -196 119 -297q119 -98 324 -98q209 0 325 98q117 97 117 297q0 137 -53 219q-54 88 -168 133q90 43 135 131q41 83 41 187q0 183 -100 276q-96 96 -297 96q-200 0 -299 -96q-98 -94 -98 -276q0 -100 43 -187q45 -89 133 -131q-113 -45 -170 -133 q-52 -85 -52 -219zM227 377q0 50 13 110q12 53 47 95q37 43 98 67q60 25 164 25q103 0 164 -27q66 -25 98 -65q34 -37 47 -97q12 -55 12 -108q0 -156 -88 -223q-84 -66 -233 -66q-147 0 -236 68q-86 68 -86 221zM270 1053q0 262 279 262q278 0 278 -262q0 -53 -8 -97 q-5 -45 -35 -88q-25 -38 -84 -65q-58 -25 -151 -25q-88 0 -154 27q-56 27 -84 65q-27 43 -35 88q-6 50 -6 95z" />
<glyph unicode="9" d="M111 979q0 -207 104 -311q106 -103 301 -103q113 0 195 31q76 29 133 66q0 -152 -27 -277q-25 -116 -69 -176q-47 -66 -113 -92q-76 -27 -156 -27q-93 0 -172 12q-51 8 -133 21v-57q0 -30 29 -43q32 -12 61 -19q13 -2 37.5 -5t36.5 -5q48 -4 76 -8q27 -2 71 -2 q136 0 226 43q93 44 149 133q60 95 84 233q25 133 25 338q0 168 -23 289q-21 132 -72 217q-46 86 -137 135q-81 47 -217 47q-108 0 -184 -33q-76 -30 -129 -92q-51 -60 -74 -139q-22 -73 -22 -176zM233 987q0 156 72 240t219 84q180 0 250 -131q70 -123 70 -369v-39 q-65 -47 -154 -74q-93 -26 -160 -26q-85 0 -149 22q-55 22 -90 64q-35 51 -45 100q-13 67 -13 129z" />
<glyph unicode=":" horiz-adv-x="456" d="M131 86q0 -51 23 -74q27 -20 73 -20q49 0 76 20q23 20 23 74t-25 76q-20 20 -74 20q-51 0 -73 -22q-23 -20 -23 -74zM131 934q0 -51 23 -74q27 -20 73 -20q49 0 76 20q23 20 23 74t-25 76q-20 20 -74 20q-51 0 -73 -22q-23 -20 -23 -74z" />
<glyph unicode=";" horiz-adv-x="456" d="M131 86q0 -41 19 -66q15 -17 53 -24l-66 -203q-4 -16 -4 -22q0 -21 23 -21h55l78 195q16 41 26 71q11 34 11 70q0 54 -25 76q-20 20 -74 20q-51 0 -73 -22q-23 -20 -23 -74zM131 934q0 -51 23 -74q27 -20 73 -20q49 0 76 20q23 20 23 74t-25 76q-20 20 -74 20 q-51 0 -73 -22q-23 -20 -23 -74z" />
<glyph unicode="&#x3c;" d="M184 684q0 -12 9 -25q2 -1 6.5 -4t9 -5.5t8.5 -6.5l678 -354v86q0 20 -4 24q-5 11 -14 15l-580 291l598 315v61q0 31 -25 31q-8 0 -12 -2q-2 0 -14 -6l-660 -354v-66z" />
<glyph unicode="=" d="M154 477q0 -31 30 -31h762v68q0 31 -31 31h-761v-68zM154 879q0 -31 30 -31h762v67q0 31 -31 31h-761v-67z" />
<glyph unicode="&#x3e;" d="M203 328q0 -31 24 -31q2 0 6.5 1t6.5 1q1 1 5.5 2.5t8.5 3.5l659 354v66q0 20 -8 25q-4 6 -24 16l-678 354v-86q0 -16 4 -24q1 0 5 -5.5t9 -9.5l580 -290l-598 -316v-61z" />
<glyph unicode="?" horiz-adv-x="851" d="M92 1327q0 -10 6 -22q7 -11 25 -11q28 0 102 19q65 16 162 16q140 0 195 -55q57 -54 57 -164q0 -51 -10 -82q-9 -35 -27 -65q-15 -25 -49 -64q-9 -9 -31.5 -32.5t-38.5 -39.5q-59 -59 -84 -88q-40 -44 -63 -80q-31 -51 -41 -84q-12 -43 -12 -100q0 -25 4 -49 q6 -25 35 -25h55q0 53 8 111q8 44 33 82q18 30 61 80q13 14 101 102q43 43 63 66q33 36 55 73q31 56 41 89q17 47 17 110q0 70 -21 129q-16 55 -61 100q-44 44 -111 68q-70 25 -166 25q-86 0 -161 -17q-76 -15 -144 -39v-53zM246 84q0 -50 22 -72q27 -20 74 -20q49 0 76 20 q22 19 22 74t-24 76q-20 20 -74 20q-52 0 -74 -22q-22 -19 -22 -76z" />
<glyph unicode="@" horiz-adv-x="1683" d="M117 524q0 -240 63 -403q64 -159 174 -252q109 -90 252 -131q142 -37 303 -37q112 0 234 14q110 15 153 31v53q0 17 -8 25t-26 8q-32 0 -103 -14q-92 -15 -219 -15q-165 0 -295 37q-134 39 -223 119q-91 85 -143 221q-50 142 -50 344q0 226 60 377q65 158 153 238 q95 85 220 123q114 34 256 34q288 0 417 -147q129 -144 129 -438q0 -96 -14 -181q-12 -91 -47 -159q-37 -75 -92 -117q-58 -43 -148 -43l39 733q3 24 -6 33q-5 9 -31 16q-21 7 -51 13q-40 8 -63 10q-20 4 -66 4q-20 2 -55 2q-132 0 -215 -45q-82 -42 -133 -117 q-50 -74 -70 -168q-20 -105 -20 -196q0 -77 14 -166q15 -72 49 -127q42 -59 88 -84q54 -29 139 -29q88 0 158 39q73 42 119 88v-74q0 -34 28 -34h58q111 0 190 43q79 42 135 122t80 191q27 114 27 246q0 213 -57 342q-55 133 -148 211q-86 75 -211 106q-113 29 -243 29 q-157 0 -302 -43q-145 -44 -256 -146q-112 -103 -178 -268q-65 -160 -65 -418zM602 498q0 77 14 166q15 82 50 133q37 58 98 92q57 33 162 33q30 0 88 -7q63 -8 76 -12l-31 -579q-22 -26 -43 -45q-21 -21 -60 -43q-44 -23 -73 -33q-44 -13 -90 -13q-106 0 -150 72 q-41 69 -41 236z" />
<glyph unicode="A" horiz-adv-x="1099" d="M63 31q-3 -31 31 -31h82q8 49 41 219q8 37 23.5 109.5t23.5 109.5h565q37 -160 45 -209q27 -129 37 -198q6 -31 33 -31h94q-42 266 -90 451q-57 232 -110 397q-49 164 -115 319q-65 164 -94 224q-9 21 -21 24q-6 4 -22 4h-99q-42 -82 -94 -209q-45 -110 -114 -313 q-59 -179 -117 -399q-57 -226 -99 -467zM289 543q53 199 114 387q62 182 144 370q76 -170 143 -372q55 -156 113 -385h-514z" />
<glyph unicode="B" horiz-adv-x="1130" d="M158 31q0 -31 30 -31h408q100 0 180 18q79 17 137 66q56 47 86 121q31 79 31 190q0 133 -53 215q-53 87 -160 121q90 38 133 119q43 79 43 199q0 114 -32 182q-29 72 -93 117q-56 45 -137 63q-84 19 -174 19q-56 0 -102 -5q-70 -4 -109 -8q-16 -2 -50 -5t-52 -5 q-45 -5 -86 -12v-1364zM274 106v568h310q80 0 141 -15q60 -12 102 -45q43 -30 62 -88q20 -53 20 -133q0 -85 -18 -141q-18 -55 -57 -88q-37 -29 -101 -45q-67 -13 -141 -13h-318zM274 778v525q40 7 119 14q73 6 162 6q81 0 139 -12q58 -11 101 -43q41 -28 59 -84 q20 -50 20 -135q0 -83 -20 -136q-18 -52 -55 -82q-40 -32 -92 -43q-46 -10 -123 -10h-310z" />
<glyph unicode="C" horiz-adv-x="1030" d="M125 709q0 -172 25 -316q24 -135 83 -227q60 -89 160 -139q99 -45 248 -45q94 0 182 16q92 19 135 35v55q0 18 -8 25.5t-26 7.5q-34 0 -101 -15q-79 -14 -168 -14q-94 0 -174 25q-76 25 -127 90q-52 71 -78 190q-26 133 -26 322q0 159 20 289q20 114 68 186 q46 69 123 100q79 31 186 31q94 0 160 -10q85 -9 139 -21v60q0 35 -28 43q-25 11 -58 16q-12 3 -72 12q-41 6 -77 9q-14 2 -76 2q-140 0 -238 -43t-157 -131q-57 -81 -88 -226q-27 -135 -27 -327z" />
<glyph unicode="D" horiz-adv-x="1220" d="M158 31q0 -31 30 -31h385q142 0 244 45q102 46 162 133q63 90 90 221q27 121 27 310q0 191 -29 321q-28 138 -88 225q-59 87 -158 131q-100 44 -239 44q-58 0 -109 -5q-74 -4 -115 -8q-18 -2 -54.5 -5t-55.5 -5q-39 -5 -90 -12v-1364zM276 106v1197q41 9 132 16 q53 4 161 4t187 -31q77 -29 125 -100q48 -68 69 -188q21 -102 21 -295q0 -194 -29 -310q-26 -114 -82 -182q-52 -63 -133 -88q-87 -23 -176 -23h-275z" />
<glyph unicode="E" horiz-adv-x="1042" d="M158 31q0 -31 30 -31h768v76q0 30 -30 30h-650v553h607v76q0 31 -31 31h-576v547h656v76q0 30 -31 30h-743v-1388z" />
<glyph unicode="F" horiz-adv-x="972" d="M158 31q0 -31 30 -31h88v653h555v76q0 31 -30 31h-525v553h625v76q0 30 -31 30h-712v-1388z" />
<glyph unicode="G" horiz-adv-x="1167" d="M125 707q0 -166 27 -318q27 -135 92 -227q66 -90 174 -135q115 -45 276 -45q86 0 189 14q86 14 159 39v643q0 31 -30 31h-363v-76q0 -31 31 -31h246v-491l-38 -7q-38 -6 -61 -8q-37 -4 -120 -4q-107 0 -201 23q-83 23 -141 90q-56 69 -86 190q-29 132 -29 324 q0 168 22 291q24 118 74 186q52 69 133 100q80 29 203 29q107 0 176 -10q86 -9 141 -21v60q0 35 -28 43q-39 15 -131 28q-76 11 -166 11q-155 0 -254 -41q-103 -40 -170 -131q-67 -92 -96 -228q-29 -133 -29 -329z" />
<glyph unicode="H" horiz-adv-x="1230" d="M158 31q0 -31 30 -31h88v674h678v-643q0 -31 31 -31h88v1389q0 30 -31 30h-88v-639h-678v609q0 30 -30 30h-88v-1388z" />
<glyph unicode="I" horiz-adv-x="434" d="M158 31q0 -31 30 -31h88v1389q0 30 -30 30h-88v-1388z" />
<glyph unicode="J" horiz-adv-x="735" d="M57 39q0 -23 21 -33q65 -20 147 -20q122 0 191 34q70 36 108 95q37 61 49 137q11 73 11 162v975q0 30 -31 30h-88v-1018q0 -53 -6 -108q-6 -53 -29 -98q-25 -45 -78 -74q-56 -29 -149 -29q-17 0 -43 1t-37 1q-36 4 -66 6v-61z" />
<glyph unicode="K" d="M158 31q0 -31 30 -31h88v672q61 -43 136 -109q71 -57 155 -141q73 -70 166 -178q100 -115 166 -213l21 -21q13 -10 41 -10h102q-57 93 -156 213q-98 123 -184 209q-78 84 -186 178q-101 88 -158 127q217 181 383 350q163 169 250 297q6 9 6 19q0 26 -31 26h-84 q-64 -91 -145 -184q-106 -118 -162 -174q-91 -91 -164 -156q-38 -35 -156 -129v613q0 30 -30 30h-88v-1388z" />
<glyph unicode="L" horiz-adv-x="952" d="M158 31q0 -31 30 -31h707v76q0 30 -31 30h-588v1283q0 30 -30 30h-88v-1388z" />
<glyph unicode="M" horiz-adv-x="1415" d="M137 31q0 -31 31 -31h82q4 199 8 295q2 51 5 153.5t5 153.5q2 54 6 157t7 152q8 210 10 293l338 -809q8 -16 12 -22q6 -6 21 -6h106l350 837q2 -48 5 -144.5t5 -141.5q2 -44 6.5 -144.5t6.5 -155.5q2 -50 6 -150.5t6 -150.5q6 -147 6 -286q0 -31 31 -31h86 q-6 336 -21 680q-14 387 -32 709q0 30 -31 30h-88l-395 -932l-383 904q-8 28 -35 28h-98q-3 -55 -16 -316t-19 -394q-18 -503 -21 -678z" />
<glyph unicode="N" horiz-adv-x="1234" d="M158 31q0 -31 30 -31h86v1221q27 -39 80 -134q56 -92 113 -194q52 -87 131 -231q70 -123 135 -240q86 -150 123 -219q7 -12 92 -172q19 -31 39 -31h90v1389q0 30 -30 30h-86v-1192q-43 85 -99 185q-56 105 -123 219q-49 89 -131 231q-85 148 -127 217q-61 110 -108 185 q-16 26 -40.5 68t-33.5 57q-9 18 -18 24q-4 6 -21 6h-102v-1388z" />
<glyph unicode="O" horiz-adv-x="1247" d="M125 709q0 -222 37 -361q38 -144 100 -223q69 -82 158 -115q92 -30 203 -30q106 0 204 32q96 36 158 113q63 77 102 223q35 132 35 361q0 221 -37 360q-41 153 -100 223q-66 85 -158 115q-82 31 -204 31q-115 0 -203 -33q-90 -29 -158 -113q-64 -78 -102 -223 q-35 -132 -35 -360zM250 709q0 167 18 284q18 120 60 191q44 74 114 108q69 35 181 35q111 0 180 -35q71 -33 115 -108q43 -73 61 -193q18 -117 18 -282q0 -166 -18 -283t-64 -193q-42 -71 -114 -108q-72 -35 -178 -35t-181 35q-70 37 -114 111q-45 79 -62 190 q-16 104 -16 283z" />
<glyph unicode="P" horiz-adv-x="1118" d="M158 31q0 -31 30 -31h88v553q92 -17 179 -27q114 -8 145 -8q94 0 174 25q79 24 133 78t84 139q29 83 29 211q0 245 -113 352q-107 107 -354 107q-61 0 -107 -5q-64 -3 -106 -8q-16 -2 -48.5 -5t-49.5 -5q-46 -6 -84 -12v-1364zM276 659v644q39 7 117 14q71 6 162 6 q81 0 145 -12q67 -12 109 -51q44 -35 68 -107q22 -62 22 -182q0 -104 -20 -168q-17 -64 -60 -107q-37 -37 -98 -55q-62 -16 -139 -16q-68 0 -156 10q-140 22 -150 24z" />
<glyph unicode="Q" horiz-adv-x="1247" d="M125 709q0 -222 37 -361q38 -144 100 -223q69 -82 158 -115q92 -30 203 -30q90 0 176 22q19 -19 43 -49q46 -52 51 -59q14 -15 49 -66q18 -22 41 -61q14 -18 16 -23q8 -8 27 -8h111q-42 76 -111 164q-94 119 -123 151q55 39 92 90q44 56 70 133q27 70 43 189 q14 86 14 246q0 221 -37 360q-41 153 -100 223q-66 85 -158 115q-82 31 -204 31q-115 0 -203 -33q-90 -29 -158 -113q-64 -78 -102 -223q-35 -132 -35 -360zM250 709q0 167 18 284q18 120 60 191q44 74 114 108q69 35 181 35q111 0 180 -35q71 -33 115 -108q43 -73 61 -193 q18 -117 18 -282q0 -166 -18 -283t-64 -193q-42 -71 -114 -108q-72 -35 -178 -35t-181 35q-70 37 -114 111q-45 79 -62 190q-16 104 -16 283z" />
<glyph unicode="R" horiz-adv-x="1148" d="M158 31q0 -31 30 -31h88v606h306q65 -71 118 -153q50 -71 107 -162q29 -46 84 -150q45 -81 57 -110q10 -15 13 -21q10 -10 30 -10h101q-21 52 -64 131q-54 107 -92 168q-56 100 -107 172q-59 90 -108 145q59 14 119 43q60 32 96 74q39 44 61 115q23 68 23 164 q0 98 -25 178q-23 77 -80 131q-56 56 -139 82q-77 27 -207 27q-107 0 -227 -13q-146 -16 -184 -22v-1364zM276 709v594q40 7 119 14q73 6 176 6q91 0 146 -16q61 -14 102 -52q43 -37 60 -94q20 -56 20 -149q0 -88 -25 -152q-24 -59 -65 -94q-42 -34 -98 -45 q-55 -12 -127 -12h-308z" />
<glyph unicode="S" horiz-adv-x="1042" d="M98 1073q0 -86 27 -162q26 -62 76 -106q47 -41 116 -72q58 -23 150 -51q97 -29 166 -57q68 -24 104 -60q43 -36 56 -80q16 -41 16 -112q0 -72 -16 -121q-14 -50 -52 -88q-34 -34 -102 -55q-68 -19 -162 -19q-101 0 -207 16q-61 12 -157 25v-59q0 -31 28 -43 q55 -18 150 -33q115 -14 194 -14q236 0 340 98q107 98 107 293q0 97 -25 164q-25 70 -73 110q-54 50 -127 78q-59 26 -183 61q-32 10 -83.5 28.5t-55.5 19.5q-57 23 -94 53q-35 28 -55 76q-17 44 -17 112q0 124 70 191q66 63 254 63q87 0 178 -12q138 -18 153 -21v60 q0 35 -28 43q-27 10 -66 16q-9 2 -80 12q-51 7 -88 7q-29 2 -82 2q-114 0 -200 -27q-79 -23 -133 -74q-53 -50 -76 -114q-23 -65 -23 -148z" />
<glyph unicode="T" horiz-adv-x="1042" d="M57 1343q0 -30 31 -30h373v-1282q0 -31 31 -31h88v1313h405v76q0 30 -31 30h-897v-76z" />
<glyph unicode="U" horiz-adv-x="1212" d="M152 481q0 -138 30 -237q29 -92 90 -156q62 -59 142 -82q86 -24 192 -24q108 0 191 24q82 23 143 84q60 60 90 154q31 89 31 239v906q0 30 -31 30h-88v-938q0 -90 -14 -159q-12 -68 -51 -123q-39 -52 -103 -80q-64 -27 -166 -27q-92 0 -164 29q-65 30 -104 78 q-37 51 -55 123q-15 74 -15 159v908q0 30 -30 30h-88v-938z" />
<glyph unicode="V" horiz-adv-x="1095" d="M61 1419q27 -182 74 -379q64 -247 103 -376q74 -233 116 -347q59 -156 119 -286q9 -18 16 -25q9 -6 29 -6h90q62 130 121 283q61 156 119 344q51 162 106 379q49 193 76 383q3 15 -4 22q-5 8 -25 8h-83q-15 -90 -48 -243q-31 -159 -69 -304q-40 -152 -105 -352 q-64 -195 -145 -387q-79 197 -141 375q-62 194 -103 342q-30 114 -71 297q-36 186 -46 242q-3 30 -30 30h-99z" />
<glyph unicode="W" horiz-adv-x="1609" d="M82 1419q13 -131 43 -327q33 -192 72 -353q52 -213 92 -360q54 -185 110 -346q10 -20 17 -27q9 -6 26 -6h88l275 1137l268 -1102q6 -21 14 -29q9 -6 25 -6h92q63 176 111 350q41 143 94 359q43 179 70 352q30 176 45 328q3 10 -4 20q-5 10 -25 10h-84q-10 -132 -41 -321 q-23 -162 -61 -326q-44 -201 -76 -315q-48 -182 -82 -287l-270 1106q-6 29 -31 29h-107l-276 -1135q-16 50 -45.5 153t-36.5 126q-2 7 -74 307q-6 29 -61 319q-25 152 -41 314q-3 30 -31 30h-96z" />
<glyph unicode="X" horiz-adv-x="1112" d="M84 29q0 -19 12 -25q16 -4 29 -4h68q10 26 30.5 80.5t30.5 81.5q41 98 76 162q47 89 98 165q49 75 127 170q143 -169 221 -327q83 -159 131 -301q12 -31 33 -31h102q-17 61 -53 147q-25 72 -82 177q-50 95 -116 198q-73 114 -156 209q30 36 98 131q59 81 105 158 q61 100 96 168q40 73 74 164q10 22 10 39q0 21 -12 24q-8 4 -29 4h-68q-20 -75 -57 -153q-30 -65 -88 -166q-72 -119 -100 -160q-42 -61 -103 -137q-44 55 -98 131q-26 39 -96 151q-27 47 -84 158q-41 87 -62 146q-9 30 -33 30h-102q20 -70 70 -178q66 -130 100 -186 q42 -70 115 -176q11 -15 50 -68.5t58 -77.5q-71 -81 -141 -186q-37 -55 -107 -176q-19 -36 -79 -162q-32 -70 -58 -141q-10 -27 -10 -39z" />
<glyph unicode="Y" horiz-adv-x="1042" d="M49 1419q52 -151 80 -227q56 -138 90 -211q36 -75 109 -211q80 -137 133 -221v-518q0 -31 31 -31h88v549q90 139 131 215q48 87 102 201q39 77 88 198q23 53 76 211q4 11 4 20q0 25 -33 25h-82q-11 -58 -45 -145q-58 -153 -80 -203q-44 -106 -104 -219 q-55 -111 -113 -195q-43 66 -106 185q-72 145 -94 194q-8 18 -78 189q-48 128 -60 164q-6 19 -14 24q-6 6 -25 6h-98z" />
<glyph unicode="Z" horiz-adv-x="1073" d="M84 31q0 -31 31 -31h874v76q0 30 -31 30h-731q21 37 69.5 119t74.5 127q32 55 97.5 164.5t80.5 134.5q22 36 93 150t112 180q83 129 221 336v72q0 30 -31 30h-840v-76q0 -30 31 -30h705q-58 -84 -129 -197q-100 -156 -138 -217q-25 -42 -73 -118t-66 -105 q-78 -129 -131 -217q-54 -92 -121 -197q-39 -64 -98 -164v-67z" />
<glyph unicode="[" horiz-adv-x="651" d="M158 -139q0 -31 30 -31h402v70q0 30 -31 30h-287v1543h318v69q0 31 -31 31h-401v-1712z" />
<glyph unicode="\" horiz-adv-x="706" d="M57 1573l465 -1698q3 -12 15 -35q7 -10 28 -10h84l-465 1698q-6 24 -14 35q-5 10 -29 10h-84z" />
<glyph unicode="]" horiz-adv-x="651" d="M61 -70v-69q0 -31 31 -31h402v1712q0 31 -31 31h-402v-70q0 -30 31 -30h287v-1543h-318z" />
<glyph unicode="^" d="M166 700q10 -10 20 -10h78l283 561l272 -542q9 -19 31 -19h96l-342 674q-6 14 -24 14h-82l-330 -649q-8 -17 -2 -29z" />
<glyph unicode="_" horiz-adv-x="1024" d="M0 -104v-103h1024v103h-1024z" />
<glyph unicode="`" horiz-adv-x="884" d="M240 1450l155 -244q19 -28 45 -28h70q-15 39 -53 127q-24 59 -51 114q-12 31 -41 31h-125z" />
<glyph unicode="a" horiz-adv-x="991" d="M92 303q0 -151 80 -237t250 -86q52 0 102 12q36 9 90 31q35 14 76 43q36 23 60 47l4 -82q0 -31 30 -31h76v705q0 84 -16 139q-14 58 -60 108q-43 49 -114 72q-68 25 -187 25q-73 0 -159 -9q-87 -6 -166 -30v-49q0 -35 32 -35q29 0 103 12q77 12 168 12q79 0 135 -12 q54 -12 88 -41q35 -25 47 -74q14 -43 14 -114v-80h-268q-186 0 -287 -76q-98 -73 -98 -250zM201 305q0 45 12 88t43 74q25 29 84 49q59 19 133 19h272v-318q-51 -51 -131 -98q-76 -43 -180 -43q-105 0 -170 53q-63 57 -63 176z" />
<glyph unicode="b" horiz-adv-x="1044" d="M139 86q0 -19 6 -31q4 -9 31 -22q3 -1 21.5 -7.5t33.5 -11.5q15 -4 46 -9.5t38 -6.5q17 -2 49 -7t48 -7q35 -4 94 -4q110 0 190 30q82 31 133 94q55 67 78 168q25 97 25 256q0 263 -94 394q-90 133 -279 133q-107 0 -178 -29q-68 -25 -127 -68v461q0 32 -12 41 q-10 10 -39 10h-64v-1384zM254 111v743q50 38 121 70q71 30 164 30q140 0 206 -100q70 -98 70 -332q0 -140 -20 -221q-18 -86 -58 -135q-37 -48 -100 -70q-61 -18 -143 -18q-61 0 -129 10q-71 14 -111 23z" />
<glyph unicode="c" horiz-adv-x="845" d="M113 510q0 -107 20 -217q21 -97 66 -166q53 -72 123 -109q76 -36 188 -36q66 0 143 12q81 12 121 26v54q0 12 -8 20q-5 10 -25 10q-23 0 -84 -12q-49 -10 -131 -10q-64 0 -120 18t-95 66q-38 50 -61 133q-21 85 -21 219q0 120 19 207q17 81 55 131q39 52 92 72 q46 20 129 20q67 0 119 -8q78 -8 123 -16v57q0 28 -27 37q-12 6 -39 12q-19 5 -57 8q-30 6 -68 9q-13 2 -65 2q-197 0 -297 -127t-100 -412z" />
<glyph unicode="d" horiz-adv-x="1044" d="M113 516q0 -111 16 -217q18 -101 59 -170q40 -66 111 -111q66 -38 174 -38q121 0 197 43q77 42 125 90l4 -82q0 -31 30 -31h76v1440q0 30 -31 30h-83v-477q-35 18 -99 39q-59 23 -164 23q-202 0 -309 -125q-106 -124 -106 -414zM229 518q0 116 19 203q17 82 55 135 q38 52 96 76q56 22 144 22q85 0 137 -16q46 -11 111 -41v-678q-19 -22 -50 -47q-26 -23 -65 -45q-54 -26 -82 -35q-44 -12 -100 -12q-154 0 -209 110q-56 112 -56 328z" />
<glyph unicode="e" horiz-adv-x="1001" d="M113 510q0 -134 26 -248q26 -99 82 -164q54 -60 137 -90q82 -26 199 -26q93 3 172 12q86 12 125 26v54q0 12 -8 20q-5 10 -25 10q-25 0 -86 -12q-51 -10 -160 -10q-96 0 -167 22q-68 25 -105 68q-35 46 -53 121q-18 87 -23 178h652q7 29 10 66q4 29 4 81q0 102 -16 173 q-16 85 -56 139q-38 57 -112 92q-65 33 -185 33q-96 0 -178 -31q-76 -30 -129 -94q-51 -62 -78 -168q-26 -114 -26 -252zM227 567q2 71 17 156q14 70 49 123q36 54 90 80q55 28 141 28q84 0 129 -22q54 -23 78 -62q30 -41 39 -104q10 -51 10 -145v-27q0 -17 -2 -27h-551z " />
<glyph unicode="f" horiz-adv-x="647" d="M78 963q0 -31 31 -31h92v-901q0 -31 30 -31h84v932h275v67q0 31 -31 31h-244v193q0 38 7 73q6 34 20 54q16 22 47 34q27 11 82 11q41 0 61 -2q3 0 82 -9v54q0 14 -4 20q-3 12 -18 17q-14 7 -35 10q-12 4 -41 4q-24 4 -37 4h-26q-76 0 -123 -20q-45 -16 -78 -58 q-30 -38 -41 -82q-10 -39 -10 -100v-203h-123v-67z" />
<glyph unicode="g" horiz-adv-x="1042" d="M113 510q0 -248 90 -379q92 -127 282 -127q92 0 170 33q85 40 123 67v-118q0 -62 -14 -105q-13 -46 -45 -78q-30 -30 -88 -49q-59 -16 -137 -16q-86 0 -168 10q-22 4 -70 10.5t-72 10.5v-58q0 -29 27 -39q78 -20 149 -28q80 -6 150 -6q199 0 291 92t92 256v942h65v47 q0 21 -8 29q-3 7 -35 14q-9 2 -65 10q-32 5 -86 8q-46 6 -96 6q-33 2 -84 2q-110 0 -199 -24q-90 -25 -147 -82q-60 -57 -95 -164q-30 -105 -30 -264zM229 514q0 133 25 219q25 88 65 131q41 47 107 66q57 16 139 16q84 0 117 -2q52 0 96 -6v-733q-45 -36 -114 -68 q-78 -33 -154 -33q-145 0 -215 95q-66 97 -66 315z" />
<glyph unicode="h" horiz-adv-x="1048" d="M139 31q0 -31 31 -31h84v811q24 27 51 49q25 23 72 47q44 24 88 35q40 12 102 12q108 0 172 -61q64 -58 64 -201v-661q0 -31 31 -31h84v696q0 189 -89 275q-84 84 -237 84q-122 0 -207 -43q-88 -46 -131 -92v520q0 30 -31 30h-84v-1439z" />
<glyph unicode="i" horiz-adv-x="401" d="M121 1315q0 -46 20 -66q21 -18 64 -18q45 0 63 18q21 18 21 66q0 47 -21 65q-19 19 -63 19q-42 0 -64 -19q-20 -20 -20 -65zM143 31q0 -31 31 -31h84v999q0 31 -31 31h-84v-999z" />
<glyph unicode="j" horiz-adv-x="401" d="M-49 -258v-49q0 -24 20 -37q27 -12 84 -12q63 0 101 18q37 17 61 47t33 68q8 27 8 76v1146q0 31 -31 31h-84v-1177q0 -57 -22 -84q-20 -29 -90 -29h-41q-6 0 -19 1t-20 1zM121 1315q0 -46 20 -66q21 -18 64 -18q45 0 63 18q21 18 21 66q0 47 -21 65q-19 19 -63 19 q-42 0 -64 -19q-20 -20 -20 -65z" />
<glyph unicode="k" horiz-adv-x="952" d="M139 31q0 -31 31 -31h84v502q184 -130 299 -242q125 -116 213 -237q20 -23 39 -23h115q-66 94 -117 152q-55 70 -121 133q-66 69 -141 127q-85 71 -174 135q93 67 147 110q61 49 129 113q61 55 107 104q30 30 75 80q4 4 11.5 13.5t11.5 13.5q10 13 10 29q0 20 -29 20h-73 q-78 -92 -211 -219q-117 -111 -291 -223v852q0 30 -31 30h-84v-1439z" />
<glyph unicode="l" horiz-adv-x="481" d="M139 182q0 -84 43 -139q42 -51 129 -51q32 0 62 6q13 2 30.5 4.5t20.5 3.5v55q0 12 -6 21q-4 8 -23 8h-43q-50 0 -76 16q-22 16 -22 80v1254q0 30 -31 30h-84v-1288z" />
<glyph unicode="m" horiz-adv-x="1650" d="M139 31q0 -31 31 -31h84v811q21 25 49 49q26 24 68 47q39 23 82 35q37 12 98 12q101 0 162 -61q59 -59 59 -201v-661q0 -31 31 -31h84v696q0 40 -2 56q0 25 -6 49q18 25 49 49q31 28 67 51q45 26 86 39q39 14 103 14q101 0 162 -61q59 -59 59 -201v-661q0 -31 31 -31h84 v696q0 191 -84 275q-81 84 -228 84q-72 0 -127 -17q-47 -13 -102 -41q-47 -26 -76 -51q-39 -35 -53 -51q-38 86 -107 123q-62 37 -168 37q-57 0 -110 -15q-52 -13 -92 -32q-41 -18 -72 -43q-33 -26 -51 -47l-4 81q0 31 -31 31h-76v-999z" />
<glyph unicode="n" horiz-adv-x="1048" d="M139 31q0 -31 31 -31h84v811q24 27 51 49q25 23 72 47q44 24 88 35q40 12 102 12q108 0 172 -61q64 -58 64 -201v-661q0 -31 31 -31h84v696q0 189 -89 275q-84 84 -237 84q-62 0 -117 -15q-56 -13 -96 -32q-35 -14 -76 -43q-40 -32 -53 -47l-4 81q0 31 -31 31h-76v-999z " />
<glyph unicode="o" horiz-adv-x="1060" d="M113 516q0 -276 98 -410q98 -131 319 -131q220 0 320 134q98 134 98 407q0 277 -98 408q-96 131 -320 131q-221 0 -319 -133q-98 -131 -98 -406zM229 516q0 118 19 205q16 78 57 135q38 52 94 76q54 22 131 22q78 0 134 -24q59 -24 94 -76q37 -47 55 -135q18 -83 18 -203 t-18 -205q-18 -84 -57 -137q-38 -53 -94 -76q-51 -22 -132 -22q-74 0 -133 24q-53 23 -94 76q-38 56 -55 135q-19 90 -19 205z" />
<glyph unicode="p" horiz-adv-x="1048" d="M84 958q0 -30 31 -30h35v-1245q0 -31 30 -31h84v395q78 -31 98 -39q68 -22 166 -22q120 0 195 37q79 37 125 104q49 70 67 170q21 105 21 231q0 146 -31 248q-29 98 -92 158q-63 63 -151 86q-81 24 -211 24q-58 0 -91 -4q-97 -6 -98 -6q-27 -2 -96 -10q-36 -5 -82 -12 v-54zM264 145v793q46 6 96 6q35 2 86 2q108 0 179 -24q72 -24 114 -74q44 -50 62 -133q18 -80 18 -195q0 -125 -18 -211q-18 -81 -58 -133q-38 -50 -94 -70q-62 -20 -135 -20q-76 0 -137 18q-63 19 -113 41z" />
<glyph unicode="q" horiz-adv-x="1048" d="M113 494q0 -255 88 -385q89 -123 282 -123q105 0 176 30q54 22 125 70v-403q0 -31 31 -31h84v1276h66v47q0 20 -9 29q-4 7 -34 14q-8 2 -66 10q-32 5 -86 8q-46 6 -96 6q-33 2 -84 2q-110 0 -201 -24q-90 -25 -149 -86q-61 -61 -95 -168q-32 -112 -32 -272zM229 498 q0 138 25 227q22 83 70 137q47 50 108 68q57 16 139 16q84 0 117 -2q52 0 96 -6v-748q-48 -36 -122 -71q-78 -33 -158 -33q-66 0 -123 23q-53 26 -86 69q-30 43 -49 127q-17 90 -17 193z" />
<glyph unicode="r" horiz-adv-x="677" d="M139 31q0 -31 31 -31h84v772q77 86 145 121q67 37 166 37h27q21 0 29 -2v73q0 19 -11 25q-8 8 -51 8q-50 0 -96 -14q-36 -9 -86 -37q-35 -18 -72 -47q-20 -16 -55 -51l-4 114q0 31 -31 31h-76v-999z" />
<glyph unicode="s" horiz-adv-x="890" d="M94 772q0 -71 25 -123q24 -49 63 -78q48 -33 97 -49q33 -11 116 -35q90 -22 125 -34q57 -15 88 -37q35 -20 54 -56q16 -27 16 -88q0 -44 -12 -82q-13 -36 -41 -59q-32 -25 -86 -37q-55 -12 -140 -12q-75 0 -163 10q-76 12 -132 21v-58q0 -25 27 -39q24 -10 62 -16 q14 -2 40.5 -5t40.5 -5q44 -3 84 -6q16 0 38 -1t28 -1q174 0 272 67q97 66 97 227q0 84 -27 136q-23 54 -70 84q-40 32 -106 51q-59 20 -129 35q-112 30 -119 32q-52 19 -78 37q-33 26 -45 51q-12 30 -12 76t12 76q11 32 41 53q25 20 78 33q41 10 123 10q78 0 143 -8 q74 -6 135 -18v55q0 30 -26 39q-20 7 -64 14q-49 8 -80 10q-47 7 -75 7q-11 1 -21.5 1t-20 -0.5t-12.5 -0.5q-176 0 -262 -74q-84 -72 -84 -203z" />
<glyph unicode="t" horiz-adv-x="661" d="M78 963q0 -31 31 -31h92v-739q0 -43 12 -84q11 -33 37 -66q23 -23 72 -43q43 -14 112 -14q64 0 146 16v55q0 14 -9 23q-4 8 -32 8q-17 0 -31 -2h-43q-42 0 -82 8q-23 7 -45 25q-12 14 -19 39q-4 32 -4 49v725h265v67q0 31 -31 31h-234v246q0 31 -30 31h-84v-277h-123v-67 z" />
<glyph unicode="u" horiz-adv-x="1048" d="M131 334q0 -187 88 -275q87 -84 238 -84q59 0 116 13q41 9 97 32q44 21 75 46q23 16 54 47l4 -82q0 -31 31 -31h75v999q0 31 -30 31h-84v-811q-8 -10 -52 -49q-32 -25 -71 -47q-39 -20 -88 -35q-50 -12 -103 -12q-105 0 -172 61q-63 60 -63 201v661q0 31 -31 31h-84v-696 z" />
<glyph unicode="v" horiz-adv-x="923" d="M51 1030q13 -105 47 -252q29 -110 78 -254q67 -182 98 -252q46 -103 111 -239q4 -6 9 -15.5t7 -11.5q6 -6 27 -6h92q46 91 113 238q57 131 102 254q38 99 80 256q35 121 51 251q3 16 -4 23q-5 8 -20 8h-86q-13 -101 -47 -242q-36 -145 -68 -239q-39 -122 -84 -232 q-36 -93 -94 -208q-103 211 -176 423q-72 213 -113 467q-3 31 -31 31h-92z" />
<glyph unicode="w" horiz-adv-x="1413" d="M72 1030q8 -75 39 -242q38 -179 59 -258q44 -150 80 -258q57 -158 90 -239q4 -6 9 -15.5t7 -11.5q6 -6 27 -6h90l234 801l223 -766q6 -21 14 -29q9 -6 25 -6h90q52 118 94 238q29 80 80 256q33 115 63 260q28 122 41 245q3 11 -4 21q-5 10 -24 10h-80q-13 -113 -35 -219 q-20 -113 -51 -236q-43 -167 -64 -233q-38 -127 -71 -213l-234 795q-6 28 -31 28h-92l-241 -823q-18 47 -72 205q-22 70 -62 223q-30 132 -51 227q-19 101 -32 215q-3 31 -31 31h-90z" />
<glyph unicode="x" horiz-adv-x="940" d="M61 1030q17 -51 60 -131q47 -79 86 -135q43 -59 98 -127q69 -81 92 -107q-115 -115 -192 -233q-77 -122 -125 -227q-2 -4 -6 -13.5t-6 -13.5q-5 -10 -5 -18q0 -17 13 -23q8 -2 28 -2h64q44 105 119 231q68 113 182 236q105 -111 172 -221q77 -127 115 -217q10 -20 12 -23 q6 -6 20 -6h103q-37 99 -117 240q-81 144 -229 292q9 10 76 86q1 1 84 107q36 48 79 119q37 56 66 119l12 24q4 8 4 19q0 19 -12 22q-4 2 -29 2h-59q-45 -108 -123 -223q-75 -110 -170 -213q-20 22 -76 90q-9 12 -78 102q-16 23 -69 109q-35 65 -55 106q-7 17 -13 23 q-4 6 -20 6h-101z" />
<glyph unicode="y" horiz-adv-x="933" d="M57 1030q15 -123 52 -256q37 -131 86 -264q65 -165 110 -258q68 -139 125 -240q-52 -94 -70 -121q-31 -51 -63 -86q-24 -28 -68 -49q-40 -16 -84 -16h-32q-5 0 -17 1t-20 1v-49q0 -24 20 -37q27 -12 74 -12q63 0 117 28q52 28 98 80q44 49 90 127q39 65 94 174 q119 242 187 463q71 223 108 483q3 16 -4 23q-5 8 -24 8h-82q-38 -259 -101 -483q-61 -224 -161 -428q-60 110 -101 198q-32 69 -90 218q-26 68 -74 231q-29 116 -47 233q0 17 -8 25q-4 6 -27 6h-88z" />
<glyph unicode="z" horiz-adv-x="935" d="M92 31q0 -31 31 -31h721v68q0 30 -31 30h-582q46 69 113 168q33 49 148 209q45 64 170 234q66 89 178 233v35q0 53 -45 53h-684v-67q0 -31 30 -31h564q-117 -151 -162 -213q-27 -38 -82.5 -112.5t-83.5 -112.5q-126 -176 -156 -220q-78 -111 -129 -190v-53z" />
<glyph unicode="{" horiz-adv-x="669" d="M102 680q0 -16 7 -23q2 -2 22 -10q24 -6 49 -31q23 -23 23 -79v-443q0 -34 8 -100q8 -42 35 -88q28 -39 76 -62q45 -22 129 -22q3 0 13 1t17 1q7 1 21.5 3t21.5 3q8 2 23 4t22 4q37 9 39 10v43q0 31 -30 31q-19 0 -39 -2q-8 0 -30.5 -1t-37.5 -1q-47 0 -82 14 q-25 12 -45 43q-17 33 -22 72q-5 36 -5 94v383q0 31 -4 47q-4 33 -12 50q-9 23 -29 47q-15 21 -49 34q30 15 49 37q24 32 29 45q10 20 14 52q2 9 2 45v381q0 45 7 96q6 44 20 69q19 32 47 43q30 15 80 15q39 0 57 -2q45 0 80 -4v49q0 14 -4 18q-3 10 -18 15q-20 9 -72 16 q-29 4 -63 4q-77 0 -129 -25t-76 -61q-27 -41 -35 -88q-8 -66 -8 -98v-441q0 -37 -10 -57q-11 -26 -25 -35q-15 -12 -33 -18t-33 -6v-72z" />
<glyph unicode="|" horiz-adv-x="528" d="M209 -139q0 -31 31 -31h79v1712q0 31 -30 31h-80v-1712z" />
<glyph unicode="}" horiz-adv-x="669" d="M61 -76v-49q0 -3 5 -18q13 -13 18 -15q37 -11 72 -16q29 -4 63 -4q79 0 129 24q53 26 76 62q30 45 35 86q8 44 8 100v443q0 34 10 57q13 25 25 35q21 14 33 18q18 6 32 6v72q0 17 -6 23q-8 8 -22 10q-27 7 -50 30q-22 22 -22 80v441q0 56 -8 100q-5 45 -35 86 q-23 38 -76 64q-45 22 -129 22q-17 0 -31 -2q-19 0 -43 -6q-35 -5 -47 -8q-25 -6 -37 -11v-43q0 -30 31 -30q3 0 16 1t23 1q20 2 68 2q52 0 82 -15q29 -12 45 -43q15 -23 22 -71q4 -29 4 -94v-381q0 -11 4 -47q11 -46 13 -50q15 -29 28 -47q16 -18 49 -35q-31 -13 -49 -36 q-13 -15 -28 -45q-8 -23 -15 -52q-2 -16 -2 -45v-383q0 -53 -6 -96q-7 -48 -20 -70q-15 -27 -47 -43q-35 -14 -80 -14q-9 0 -28.5 1t-29.5 1q-8 1 -19 1.5t-29 1t-32 1.5z" />
<glyph unicode="~" d="M143 584q0 -11 7 -25q7 -10 26 -10h68q0 27 4 67q9 47 14 56q12 24 31 37q17 12 51 12q46 0 84 -21q48 -23 94 -59q36 -25 105 -68q59 -30 129 -30q92 0 147 55q53 53 53 180q0 16 -6 25q-5 10 -26 10h-68q0 -48 -4 -68q-3 -34 -14 -55q-12 -23 -31 -37q-18 -12 -51 -12 q-40 0 -84 21q-46 26 -94 59q-45 36 -105 67q-50 31 -129 31q-92 0 -147 -55q-54 -54 -54 -180z" />
<glyph unicode="&#xa1;" horiz-adv-x="481" d="M143 983q0 -51 23 -74q27 -20 74 -20q48 0 75 20q23 20 23 74t-25 76q-20 20 -73 20q-52 0 -74 -22q-23 -20 -23 -74zM182 139v-456q0 -31 31 -31h86v487q0 164 -2 250q0 147 -10 250q0 31 -31 31h-59q-11 -165 -13 -269q0 -39 -1 -126.5t-1 -135.5z" />
<glyph unicode="&#xa2;" d="M227 707q0 -93 17 -193q22 -103 51 -156q36 -65 92 -112q56 -42 143 -60l-14 -186q0 -25 29 -25h65l17 203q85 0 164 12q81 12 124 27v53q0 13 -8 21q-5 10 -26 10q-22 0 -84 -12q-63 -13 -162 -13l74 869q48 -3 98 -12q14 -2 47.5 -6.5t52.5 -6.5v58q0 28 -28 36 q-24 12 -64 17q-31 6 -98 10l14 154q3 24 -29 24h-65l-16 -174q-194 -3 -295 -131q-99 -126 -99 -407zM344 715q0 109 16 194q18 81 52 129q39 54 84 76q56 26 116 31l-71 -854q-41 11 -82 41q-36 29 -64 80q-24 53 -39 125q-12 77 -12 178z" />
<glyph unicode="&#xa3;" d="M174 688q0 -31 31 -31h151q13 -63 13 -114q0 -121 -50 -236q-53 -119 -124 -201v-75q0 -31 30 -31h781v76q0 30 -31 30h-651q28 35 53 78q23 37 51 103q29 70 41 125q16 60 16 139q0 37 -2 53q0 17 -8 53h344v70q0 27 -31 27h-335q-23 97 -31 141q-12 67 -12 121 q0 161 65 229t211 68q92 0 156 -10q78 -9 131 -21v59q0 15 -4 23q-2 10 -21 16q-57 21 -125 29q-61 10 -149 10q-202 0 -291 -108q-92 -109 -92 -299q0 -58 12 -125q5 -25 15.5 -72t13.5 -61h-158v-66z" />
<glyph unicode="&#xa4;" d="M94 1079l146 -145q-36 -49 -54 -109q-16 -55 -16 -131q0 -141 70 -239l-125 -125q-10 -10 -13 -21q0 -5 11 -20l57 -53l145 145q95 -64 234 -64q69 0 131 19q59 17 102 47l125 -127q21 -22 41 -2l56 55l-146 146q35 46 53 108q17 58 17 131q0 149 -70 240l125 125 q21 21 2 41l-57 53l-146 -145q-89 63 -233 63q-70 0 -131 -18q-58 -18 -103 -47l-125 127q-21 21 -40 2zM279 694q0 126 67 199q67 76 203 76q138 0 205 -76q65 -71 65 -199q0 -122 -67 -198q-70 -76 -203 -76q-135 0 -205 76q-65 74 -65 198z" />
<glyph unicode="&#xa5;" d="M70 1386q54 -158 67 -194q57 -139 76 -182q11 -23 40 -84t46 -95q98 -175 102 -182h-280v-61q0 -31 31 -31h311v-229h-342v-62q0 -30 31 -30h311v-205q0 -31 31 -31h86v236h342v61q0 31 -31 31h-311v229h340v61q0 31 -31 31h-248q59 97 100 178q41 75 84 170 q48 101 72 170q27 67 64 176q15 43 -29 43h-80q-9 -48 -43 -139q-29 -87 -76 -192q-41 -99 -98 -213q-47 -97 -109 -189q-35 52 -102 176q-17 35 -47 100.5t-41 88.5q-12 28 -37.5 90t-38.5 92q-17 45 -57 156q-6 18 -15 24q-6 6 -22 6h-96z" />
<glyph unicode="&#xa6;" horiz-adv-x="528" d="M209 -139q0 -31 31 -31h79v651q0 31 -30 31h-80v-651zM209 922q0 -31 31 -31h79v651q0 31 -30 31h-80v-651z" />
<glyph unicode="&#xa7;" horiz-adv-x="1038" d="M106 649q0 -73 25 -131q23 -50 70 -94q50 -41 118 -70q69 -28 166 -59q61 -17 140 -47q62 -20 88 -41q33 -20 45 -51q12 -24 12 -78q0 -96 -76 -133q-69 -35 -213 -35q-76 0 -178 10q-116 15 -164 25v-56q0 -29 27 -43q3 -1 25.5 -6.5t37.5 -9.5q12 -2 40 -7t44 -7 q15 -2 46 -5.5t47 -5.5q33 -2 83 -2q72 0 148 13q63 10 127 45q60 37 90 86q33 49 33 139q0 93 -45 147q-47 63 -121 91q121 55 172 127q47 70 47 180q0 76 -25 131q-26 59 -69 92q-46 40 -119 70q-71 30 -166 59q-29 10 -74.5 25.5t-62.5 21.5q-48 19 -86 39q-34 24 -45 49 q-12 30 -12 70q0 87 67 121q58 32 193 32q84 0 149 -8q75 -6 146 -18v53q0 29 -29 41q-24 10 -62 16q-33 8 -77 11q-30 4 -78 8q-12 2 -64 2q-82 0 -145 -14q-63 -12 -115 -48q-43 -26 -73 -84q-27 -56 -27 -120q0 -85 43 -140q39 -48 117 -84q-121 -56 -170 -129 q-50 -74 -50 -178zM223 662q0 86 53 151q53 64 162 98q138 -42 199 -67q66 -23 119 -60q43 -30 55 -69q12 -30 12 -97q0 -87 -53 -151q-49 -60 -162 -98q-122 40 -198 67q-78 32 -119 60q-38 26 -55 69q-13 44 -13 97z" />
<glyph unicode="&#xa8;" horiz-adv-x="884" d="M190 1313q0 -43 21 -64q21 -18 61 -18q44 0 62 18q20 17 20 64q0 46 -20 63q-19 19 -62 19q-41 0 -63 -19q-19 -19 -19 -63zM530 1313q0 -43 21 -64q21 -18 61 -18q44 0 62 18q20 17 20 64q0 46 -20 63q-19 19 -62 19q-41 0 -63 -19q-19 -19 -19 -63z" />
<glyph unicode="&#xa9;" horiz-adv-x="1609" d="M102 709q0 -168 48 -310q50 -138 139 -229q94 -94 221 -143q133 -50 295 -50q167 0 297 50q125 47 221 143q89 92 137 231q47 131 47 308q0 181 -47 309q-46 136 -139 229q-93 96 -221 144q-128 49 -295 49q-166 0 -297 -49q-130 -50 -221 -144q-84 -84 -137 -231 q-48 -139 -48 -307zM213 709q0 125 31 243q27 107 100 199q72 87 182 135q116 49 279 49q167 0 280 -49q115 -49 183 -135q67 -82 98 -201q31 -118 31 -241t-31 -244q-30 -114 -100 -199q-68 -86 -183 -135q-113 -49 -278 -49t-281 49q-110 48 -182 135q-68 86 -98 201 q-31 121 -31 242zM496 707q0 -201 77 -301q80 -95 246 -95q46 0 121 11q79 15 86 18v57q0 25 -27 25q-29 0 -59 -6q-20 -4 -90 -4q-30 0 -92 8q-43 9 -76 35q-34 34 -53 90q-19 65 -19 166q0 92 19 151q19 62 47 90q27 32 76 45q43 11 100 11q55 0 80 -4q32 -2 90 -9v64 q0 22 -23 28q-18 9 -73 15q-52 6 -101 6q-159 0 -245 -92q-84 -90 -84 -309z" />
<glyph unicode="&#xaa;" horiz-adv-x="737" d="M84 961q0 -92 57 -146q60 -51 156 -51q77 0 133 35q64 41 92 69l4 -63q0 -14 11 -25q12 -6 16 -6h61v463q0 93 -59 149q-57 60 -203 60q-51 0 -106 -8q-54 -6 -105 -21v-53q0 -23 29 -23q3 0 68 9q41 8 100 8q50 0 70 -4q31 -3 57 -19q25 -13 37 -39q14 -22 14 -69v-43 h-158q-132 0 -204 -54q-70 -52 -70 -169zM113 565q0 -28 30 -28h471v57q0 31 -30 31h-471v-60zM180 969q0 57 39 96q40 37 135 37h162v-141q-13 -20 -35 -39t-49 -35q-31 -17 -59 -27q-33 -10 -66 -10q-54 0 -94 29q-33 29 -33 90z" />
<glyph unicode="&#xab;" horiz-adv-x="786" d="M92 530l168 -358q7 -14 19 -20q10 -5 26 -5h84l-178 383l166 338q12 20 2 33q-6 12 -21 12h-77zM401 530l168 -358q7 -14 19 -20q10 -5 26 -5h84l-178 383l166 338q12 20 2 33q-6 12 -20 12h-78z" />
<glyph unicode="&#xac;" d="M154 821q0 -30 30 -30h647v-334q0 -31 31 -31h66v432q0 31 -31 31h-743v-68z" />
<glyph unicode="&#xad;" horiz-adv-x="784" d="M98 539q0 -31 31 -31h557v72q0 30 -31 30h-557v-71z" />
<glyph unicode="&#xae;" horiz-adv-x="1015" d="M84 1063q0 -196 113 -315q115 -115 309 -115q199 0 311 115q111 114 111 315q0 202 -113 315q-109 115 -309 115q-199 0 -311 -115q-111 -114 -111 -315zM166 1063q0 165 88 262q84 94 252 94q169 0 252 -96q88 -94 88 -260q0 -164 -88 -262q-85 -94 -252 -94 q-162 0 -252 96q-88 102 -88 260zM352 874q0 -26 27 -26h51v172h74q35 -47 55 -86q29 -53 35 -70q2 -2 5 -6t5 -6q4 -4 17 -4h65q-5 15 -18 41q-19 37 -29 51q-15 27 -33 51q-19 29 -31 43q36 11 62 41q25 28 25 82q0 61 -37 98q-35 35 -117 35q-19 0 -33 -2q-27 0 -43 -2 q-21 0 -45 -6q-6 -1 -18 -2t-17 -2v-402zM430 1083v138q16 4 33 4q6 1 12.5 1t12.5 -0.5t8 -0.5q44 0 67 -13q21 -10 21 -55q0 -44 -21 -59q-23 -15 -61 -15h-72z" />
<glyph unicode="&#xaf;" horiz-adv-x="884" d="M207 1292q0 -30 31 -30h440v67q0 31 -31 31h-440v-68z" />
<glyph unicode="&#xb0;" horiz-adv-x="684" d="M84 1161q0 -113 72 -188q73 -70 186 -70q116 0 188 72q70 70 70 186q0 120 -72 189q-66 69 -186 69q-117 0 -188 -71q-70 -70 -70 -187zM182 1161q0 77 43 123q40 45 117 45q78 0 119 -47q41 -44 41 -121q0 -74 -43 -123q-42 -45 -117 -45t-119 47q-41 47 -41 121z" />
<glyph unicode="&#xb1;" d="M154 35q0 -31 30 -31h762v68q0 30 -31 30h-761v-67zM154 686q0 -31 30 -31h314v-336q0 -30 30 -30h74v366h344v68q0 31 -31 31h-313v336q0 30 -31 30h-73v-366h-344v-68z" />
<glyph unicode="&#xb2;" horiz-adv-x="780" d="M119 612q0 -11 10 -24q13 -10 25 -10h497v59q0 33 -35 33h-395q3 49 25 92q23 42 53 72q35 35 72 57q16 10 40 27t35 24q17 10 46 29t36 24q39 26 64 54q30 34 43 63q14 29 14 82q0 100 -69 154q-64 53 -207 53q-82 0 -133 -10q-64 -9 -107 -25v-43q0 -13 6 -25 q7 -10 27 -10t47 6q14 3 61 11q25 4 80 4q116 0 152 -33q39 -29 39 -84q0 -58 -49 -98q-50 -38 -144 -99q-55 -33 -94 -67q-51 -40 -74 -74q-32 -44 -49 -92q-16 -44 -16 -111v-39z" />
<glyph unicode="&#xb3;" horiz-adv-x="780" d="M96 627q0 -31 29 -41q9 -3 45 -11q38 -4 59 -8q9 -1 28.5 -2t27.5 -2h41q142 0 227 60q82 59 82 186q0 81 -33 125q-29 47 -92 72q48 31 74 73q28 43 28 109q0 100 -67 155q-67 58 -203 58q-82 0 -133 -10q-54 -8 -100 -21v-45q0 -15 6 -27q5 -8 28 -8q25 0 80 10 q39 9 113 9q91 0 133 -31q39 -27 39 -90q0 -24 -6 -51q-5 -21 -25 -47q-18 -20 -51 -35q-38 -15 -84 -15h-106v-59q0 -33 34 -33h62q96 0 145 -28q51 -25 51 -113q0 -69 -45 -111q-41 -41 -166 -41q-49 0 -110 7q-10 1 -111 16v-51z" />
<glyph unicode="&#xb4;" horiz-adv-x="884" d="M381 1186q8 -8 20 -8h64l164 237q12 17 2 27q-4 8 -23 8h-108q-6 -12 -28.5 -53.5t-33.5 -65.5q-18 -34 -57 -123q-6 -13 0 -22z" />
<glyph unicode="&#xb5;" horiz-adv-x="1056" d="M139 -317q0 -31 31 -31h84v409q23 -26 55 -45q35 -15 62 -26q12 -3 32 -7.5t25 -5.5q18 -2 43 -2q59 0 113 13q37 9 94 32q47 23 76 46q20 14 53 47l4 -82q0 -31 31 -31h76v999q0 31 -31 31h-84v-811q-12 -14 -51 -49q-29 -23 -72 -47q-39 -20 -88 -35q-50 -12 -103 -12 q-105 0 -172 61q-63 60 -63 201v661q0 31 -31 31h-84v-1347z" />
<glyph unicode="&#xb6;" horiz-adv-x="1126" d="M106 987q0 -93 23 -174q27 -79 64 -121q42 -48 102 -74q58 -23 141 -32v-725q0 -31 31 -31h82v1493q12 4 37 4h32q74 0 107 -2q49 0 96 -6v-1458q0 -31 31 -31h82v1479h65v51q0 21 -8 26q-4 6 -35 13q-9 2 -65 10q-32 5 -86 8q-47 6 -96 6q-33 2 -84 2q-119 0 -213 -20 q-98 -19 -164 -70q-68 -49 -105 -135q-37 -84 -37 -213z" />
<glyph unicode="&#xb7;" horiz-adv-x="456" d="M131 696q0 -50 23 -73q28 -21 73 -21q48 0 76 21q23 20 23 73q0 54 -25 76q-21 21 -74 21q-50 0 -73 -23q-23 -20 -23 -74z" />
<glyph unicode="&#xb8;" horiz-adv-x="884" d="M262 -305v-43q0 -18 21 -25q33 -10 90 -10q54 0 88 12q32 10 55 33q21 21 27 45q6 18 6 49q0 50 -27 80q-25 31 -92 43l-31 6l54 125h-82l-45 -106q-15 -43 -15 -51q0 -14 11 -25q4 -2 32 -10l21 -4q38 -6 57 -19q19 -8 19 -39q0 -45 -35 -53q-46 -8 -88 -8h-66z" />
<glyph unicode="&#xb9;" horiz-adv-x="780" d="M139 1245q0 -15 9 -24t24 -9q2 0 6.5 1t7.5 1q14 4 17 5l168 65v-672q0 -11 10 -24q13 -10 22 -10h74v796q0 33 -35 33q-14 0 -22 -4q-31 -8 -37 -10q-9 -2 -64 -25q-12 -4 -45.5 -18t-56.5 -23l-78 -31v-51z" />
<glyph unicode="&#xba;" horiz-adv-x="737" d="M90 1106q0 -182 74 -262q72 -78 205 -78q130 0 204 80t74 260q0 182 -74 262q-72 78 -204 78q-133 0 -207 -80q-72 -78 -72 -260zM117 567q0 -30 30 -30h471v57q0 31 -30 31h-471v-58zM193 1106q0 133 45 194q44 58 131 58q91 0 133 -60q43 -54 43 -192q0 -135 -45 -195 q-42 -57 -131 -57q-86 0 -133 59q-43 61 -43 193z" />
<glyph unicode="&#xbb;" horiz-adv-x="786" d="M88 913l178 -383l-166 -337q-9 -19 -2 -33q10 -13 21 -13h78l188 383l-168 359q-5 14 -18 20q-8 4 -27 4h-84zM397 913l178 -383l-165 -337q-9 -19 -2 -33q10 -13 20 -13h78l188 383l-168 359q-6 14 -18 20q-8 4 -27 4h-84z" />
<glyph unicode="&#xbc;" horiz-adv-x="1806" d="M139 1245q0 -15 9 -24t24 -9q2 0 6.5 1t7.5 1q14 4 17 5l168 65v-672q0 -11 10 -24q13 -10 22 -10h74v796q0 33 -35 33q-14 0 -22 -4q-31 -8 -37 -10q-9 -2 -64 -25q-12 -4 -45.5 -18t-56.5 -23l-78 -31v-51zM418 27q0 -27 31 -27h65l817 1333q8 13 8 27q0 26 -30 26h-66 l-817 -1333q-8 -16 -8 -26zM1112 238q0 -35 33 -35h377v-164q0 -35 34 -35h64v199h94v51q0 17 -8 25q-5 10 -25 10h-61v489q0 19 -8 27t-27 8h-72q-70 -48 -143 -121q-76 -79 -117 -137q-55 -78 -88 -143q-33 -61 -53 -131v-43zM1212 289q11 36 43 102q28 52 68 111 q41 56 90 108q51 54 109 97v-418h-310z" />
<glyph unicode="&#xbd;" horiz-adv-x="1806" d="M139 1245q0 -15 9 -24t24 -9q2 0 6.5 1t7.5 1q14 4 17 5l168 65v-672q0 -11 10 -24q13 -10 22 -10h74v796q0 33 -35 33q-14 0 -22 -4q-31 -8 -37 -10q-9 -2 -64 -25q-12 -4 -45.5 -18t-56.5 -23l-78 -31v-51zM371 27q0 -27 30 -27h66l817 1333q8 13 8 27q0 26 -30 26h-66 l-817 -1333q-8 -16 -8 -26zM1151 39q0 -12 10 -25q13 -10 25 -10h497v59q0 17 -7.5 25t-26.5 8h-396q3 49 25 92q23 42 53 72q35 35 72 57q16 10 40.5 27.5t35.5 24.5q17 10 46 29t36 24q39 26 63 53q29 33 43 64q14 29 14 82q0 99 -69 153q-64 53 -207 53q-82 0 -133 -10 q-69 -10 -107 -24v-43q0 -13 6 -25q7 -10 27 -10t47 6q1 0 62 10q25 4 79 4q116 0 152 -33q39 -29 39 -84q0 -58 -49 -98q-40 -30 -144 -98q-51 -31 -94 -68q-50 -40 -73 -73q-34 -46 -50 -93q-16 -44 -16 -110v-39z" />
<glyph unicode="&#xbe;" horiz-adv-x="1806" d="M96 627q0 -31 29 -41q9 -3 45 -11q38 -4 59 -8q9 -1 28.5 -2t27.5 -2h41q142 0 227 60q82 59 82 186q0 81 -33 125q-29 47 -92 72q48 31 74 73q28 43 28 109q0 100 -67 155q-67 58 -203 58q-82 0 -133 -10q-54 -8 -100 -21v-45q0 -15 6 -27q5 -8 28 -8q25 0 80 10 q39 9 113 9q91 0 133 -31q39 -27 39 -90q0 -24 -6 -51q-5 -21 -25 -47q-18 -20 -51 -35q-38 -15 -84 -15h-106v-59q0 -33 34 -33h62q96 0 145 -28q51 -25 51 -113q0 -69 -45 -111q-41 -41 -166 -41q-49 0 -110 7q-10 1 -111 16v-51zM467 27q0 -27 31 -27h65l817 1333 q9 15 9 27q0 26 -31 26h-66l-817 -1333q-8 -16 -8 -26zM1112 238q0 -35 33 -35h377v-164q0 -35 34 -35h64v199h94v51q0 17 -8 25q-5 10 -25 10h-61v489q0 19 -8 27t-27 8h-72q-70 -48 -143 -121q-76 -79 -117 -137q-55 -78 -88 -143q-33 -61 -53 -131v-43zM1212 289 q11 36 43 102q28 52 68 111q41 56 90 108q51 54 109 97v-418h-310z" />
<glyph unicode="&#xbf;" horiz-adv-x="851" d="M96 -43q0 -57 21 -129q22 -61 61 -100q44 -44 111 -68q70 -25 166 -25q74 0 161 17q80 18 144 39v53q0 14 -6 23q-5 10 -25 10q-24 0 -102 -19q-63 -16 -162 -16q-137 0 -195 55q-57 57 -57 164q0 44 10 82q14 45 27 66q21 35 49 63q13 15 70 72q34 34 84 88q50 58 63 80 q32 52 41 84q12 37 12 100q0 39 -4 49q-6 25 -35 25h-55q0 -70 -8 -111q-5 -34 -33 -82q-30 -46 -61 -80q-12 -14 -101 -102q-28 -28 -63 -66q-40 -46 -55 -73q-23 -39 -41 -88q-17 -56 -17 -111zM412 983q0 -52 22 -74q27 -20 74 -20q49 0 76 20q22 19 22 74t-24 76 q-20 20 -74 20q-52 0 -74 -22q-22 -19 -22 -74z" />
<glyph unicode="&#xc0;" horiz-adv-x="1099" d="M63 31q-3 -31 31 -31h82q8 49 41 219q8 37 23.5 109.5t23.5 109.5h565q37 -160 45 -209q27 -129 37 -198q6 -31 33 -31h94q-42 266 -90 451q-57 232 -110 397q-49 164 -115 319q-65 164 -94 224q-9 21 -21 24q-6 4 -22 4h-99q-42 -82 -94 -209q-45 -110 -114 -313 q-59 -179 -117 -399q-57 -226 -99 -467zM289 543q53 199 114 387q62 182 144 370q76 -170 143 -372q55 -156 113 -385h-514zM336 1780l172 -226q4 -4 10.5 -11.5t9.5 -10.5q12 -6 25 -6h76q-25 67 -58 123q-12 24 -33 59t-24 41q-10 19 -18 25q-4 6 -23 6h-137z" />
<glyph unicode="&#xc1;" horiz-adv-x="1099" d="M63 31q-3 -31 31 -31h82q8 49 41 219q8 37 23.5 109.5t23.5 109.5h565q37 -160 45 -209q27 -129 37 -198q6 -31 33 -31h94q-42 266 -90 451q-57 232 -110 397q-49 164 -115 319q-65 164 -94 224q-9 21 -21 24q-6 4 -22 4h-99q-42 -82 -94 -209q-45 -110 -114 -313 q-59 -179 -117 -399q-57 -226 -99 -467zM289 543q53 199 114 387q62 182 144 370q76 -170 143 -372q55 -156 113 -385h-514zM477 1532q9 -6 21 -6h65l180 219q12 18 0 27q-6 8 -20 8h-115q-10 -13 -69 -109q-61 -112 -62 -115q-6 -15 0 -24z" />
<glyph unicode="&#xc2;" horiz-adv-x="1099" d="M63 31q-3 -31 31 -31h82q8 49 41 219q8 37 23.5 109.5t23.5 109.5h565q37 -160 45 -209q27 -129 37 -198q6 -31 33 -31h94q-42 266 -90 451q-57 232 -110 397q-49 164 -115 319q-65 164 -94 224q-9 21 -21 24q-6 4 -22 4h-99q-42 -82 -94 -209q-45 -110 -114 -313 q-59 -179 -117 -399q-57 -226 -99 -467zM289 543q53 199 114 387q62 182 144 370q76 -170 143 -372q55 -156 113 -385h-514zM330 1534q8 -8 20 -8h68l131 160l106 -132q11 -14 23 -22q12 -6 24 -6h78q-67 108 -90 137q-39 57 -72 98q-10 17 -18 17q-4 2 -22 2h-84 q-40 -52 -84 -111q-12 -15 -76 -110q-10 -16 -4 -25z" />
<glyph unicode="&#xc3;" horiz-adv-x="1099" d="M63 31q-3 -31 31 -31h82q8 49 41 219q8 37 23.5 109.5t23.5 109.5h565q37 -160 45 -209q27 -129 37 -198q6 -31 33 -31h94q-42 266 -90 451q-57 232 -110 397q-49 164 -115 319q-65 164 -94 224q-9 21 -21 24q-6 4 -22 4h-99q-42 -82 -94 -209q-45 -110 -114 -313 q-59 -179 -117 -399q-57 -226 -99 -467zM264 1575q0 -7 4 -19q8 -8 21 -8h59q0 7 1 21.5t1 21.5q5 37 6 41q6 18 19 31q12 12 35 12q31 0 53 -14q7 -3 63 -45q13 -8 36 -24.5t36 -24.5q41 -23 90 -23q70 0 109 45q37 46 37 146q0 13 -5 18q-3 8 -20 8h-59q0 -29 -2 -45 q0 -20 -7 -41q-6 -18 -18 -30q-11 -11 -35 -11q-23 0 -53 15q-9 5 -30.5 21t-33.5 24q-42 32 -71 49q-34 22 -90 22q-73 0 -109 -45q-37 -43 -37 -145zM289 543q53 199 114 387q62 182 144 370q76 -170 143 -372q55 -156 113 -385h-514z" />
<glyph unicode="&#xc4;" horiz-adv-x="1099" d="M63 31q-3 -31 31 -31h82q8 49 41 219q8 37 23.5 109.5t23.5 109.5h565q37 -160 45 -209q27 -129 37 -198q6 -31 33 -31h94q-42 266 -90 451q-57 232 -110 397q-49 164 -115 319q-65 164 -94 224q-9 21 -21 24q-6 4 -22 4h-99q-42 -82 -94 -209q-45 -110 -114 -313 q-59 -179 -117 -399q-57 -226 -99 -467zM289 543q53 199 114 387q62 182 144 370q76 -170 143 -372q55 -156 113 -385h-514zM297 1655q0 -44 20 -64q21 -18 62 -18q43 0 61 18q21 18 21 64q0 45 -21 63q-19 19 -61 19t-64 -19q-18 -18 -18 -63zM637 1655q0 -44 20 -64 q21 -18 62 -18q43 0 61 18q21 18 21 64q0 45 -21 63q-19 19 -61 19t-64 -19q-18 -18 -18 -63z" />
<glyph unicode="&#xc5;" horiz-adv-x="1099" d="M63 31q-3 -31 31 -31h82q8 49 41 219q8 37 23.5 109.5t23.5 109.5h565q37 -160 45 -209q27 -129 37 -198q6 -31 33 -31h94q-42 266 -90 451q-57 232 -110 397q-49 164 -115 319q-65 164 -94 224q-9 21 -21 24q-6 4 -22 4h-99q-42 -82 -94 -209q-45 -110 -114 -313 q-59 -179 -117 -399q-57 -226 -99 -467zM289 543q53 199 114 387q62 182 144 370q76 -170 143 -372q55 -156 113 -385h-514zM358 1677q0 -82 48 -133q49 -49 143 -49q97 0 143 49q47 47 47 133t-47 133q-47 50 -143 50q-93 0 -143 -50q-48 -51 -48 -133zM446 1677 q0 56 29 82q29 23 74 23q48 0 76 -25q26 -21 26 -80q0 -60 -28 -82q-25 -22 -74 -22q-46 0 -76 24q-27 24 -27 80z" />
<glyph unicode="&#xc6;" horiz-adv-x="1605" d="M35 31q-3 -12 4 -23q12 -8 22 -8h80q56 165 76 219q83 212 86 219h481v-407q0 -31 31 -31h705v76q0 30 -31 30h-586v553h543v76q0 31 -31 31h-512v547h592v76q0 30 -31 30h-733q-63 -88 -164 -243q-107 -170 -184 -316q-88 -169 -182 -383q-96 -225 -166 -446zM348 543 q86 195 201 405q123 217 235 371v-776h-436z" />
<glyph unicode="&#xc7;" horiz-adv-x="1030" d="M125 709q0 -159 22 -297q25 -136 72 -222q51 -89 133 -141q89 -51 211 -63l-35 -82q-14 -40 -14 -51q0 -15 10 -25q3 -1 33 -10l21 -4q38 -6 57 -19q18 -8 18 -39q0 -45 -35 -53q-46 -8 -88 -8h-65v-43q0 -18 20 -25q33 -10 90 -10q55 0 89 12q32 10 55 33q20 20 26 45 q7 21 7 49q0 50 -27 80q-25 31 -92 43l-31 6l41 97q92 0 180 16q92 19 135 35v55q0 18 -8 25.5t-26 7.5q-34 0 -101 -15q-79 -14 -168 -14q-94 0 -174 25q-76 25 -127 90q-52 71 -78 190q-26 133 -26 322q0 159 20 289q20 114 68 186q46 69 123 100q79 31 186 31 q94 0 160 -10q85 -9 139 -21v60q0 35 -28 43q-25 11 -58 16q-12 3 -72 12q-41 6 -77 9q-14 2 -76 2q-140 0 -238 -43t-157 -131q-57 -81 -88 -226q-27 -135 -27 -327z" />
<glyph unicode="&#xc8;" horiz-adv-x="1042" d="M158 31q0 -31 30 -31h768v76q0 30 -30 30h-650v553h607v76q0 31 -31 31h-576v547h656v76q0 30 -31 30h-743v-1388zM332 1780l172 -226q4 -4 10.5 -11.5t9.5 -10.5q12 -6 25 -6h76q-25 67 -58 123q-12 24 -33 59t-24 41q-10 19 -18 25q-4 6 -23 6h-137z" />
<glyph unicode="&#xc9;" horiz-adv-x="1042" d="M158 31q0 -31 30 -31h768v76q0 30 -30 30h-650v553h607v76q0 31 -31 31h-576v547h656v76q0 30 -31 30h-743v-1388zM473 1532q9 -6 21 -6h65l180 219q12 18 0 27q-6 8 -20 8h-115q-10 -13 -69 -109q-61 -112 -62 -115q-6 -15 0 -24z" />
<glyph unicode="&#xca;" horiz-adv-x="1042" d="M158 31q0 -31 30 -31h768v76q0 30 -30 30h-650v553h607v76q0 31 -31 31h-576v547h656v76q0 30 -31 30h-743v-1388zM326 1534q8 -8 20 -8h68l131 160l106 -132q11 -14 23 -22q12 -6 24 -6h78q-67 108 -90 137q-39 57 -72 98q-10 17 -18 17q-4 2 -23 2h-84 q-13 -17 -83 -111q-12 -15 -76 -110q-10 -16 -4 -25z" />
<glyph unicode="&#xcb;" horiz-adv-x="1042" d="M158 31q0 -31 30 -31h768v76q0 30 -30 30h-650v553h607v76q0 31 -31 31h-576v547h656v76q0 30 -31 30h-743v-1388zM293 1655q0 -44 20 -64q21 -18 62 -18q43 0 61 18q21 18 21 64q0 45 -21 63q-19 19 -61 19t-64 -19q-18 -18 -18 -63zM633 1655q0 -44 20 -64 q21 -18 62 -18q43 0 61 18q21 18 21 64q0 45 -21 63q-19 19 -61 19t-64 -19q-18 -18 -18 -63z" />
<glyph unicode="&#xcc;" horiz-adv-x="434" d="M8 1780l172 -226q4 -4 11 -11.5t10 -10.5q12 -6 24 -6h76q-27 71 -57 123q-12 24 -33 58t-25 42q-10 19 -18 25q-4 6 -23 6h-137zM158 31q0 -31 30 -31h88v1389q0 30 -30 30h-88v-1388z" />
<glyph unicode="&#xcd;" horiz-adv-x="434" d="M150 1532q9 -6 20 -6h66l180 219q12 18 0 27q-6 8 -21 8h-114q-17 -24 -70 -109q-50 -93 -61 -115q-6 -15 0 -24zM158 31q0 -31 30 -31h88v1389q0 30 -30 30h-88v-1388z" />
<glyph unicode="&#xce;" horiz-adv-x="434" d="M2 1534q8 -8 21 -8h67l131 160l107 -132q13 -16 22 -22q12 -6 25 -6h78q-63 102 -91 137q-46 67 -71 98q-10 17 -19 17q-4 2 -22 2h-84q-40 -52 -84 -111q-12 -15 -76 -110q-10 -16 -4 -25zM158 31q0 -31 30 -31h88v1389q0 30 -30 30h-88v-1388z" />
<glyph unicode="&#xcf;" horiz-adv-x="434" d="M-31 1655q0 -43 21 -64q21 -18 61 -18q44 0 62 18q20 17 20 64q0 46 -20 63q-19 19 -62 19q-41 0 -63 -19q-19 -19 -19 -63zM158 31q0 -31 30 -31h88v1389q0 30 -30 30h-88v-1388zM309 1655q0 -43 21 -64q21 -18 61 -18q44 0 62 18q20 17 20 64q0 46 -20 63 q-19 19 -62 19q-41 0 -63 -19q-19 -19 -19 -63z" />
<glyph unicode="&#xd0;" horiz-adv-x="1275" d="M47 713q0 -31 31 -31h135v-651q0 -31 31 -31h385q141 0 243 45q102 46 162 133q63 90 90 221q27 122 27 310q0 191 -29 321q-28 138 -88 225q-59 88 -157 131q-100 44 -240 44q-58 0 -109 -5q-72 -4 -114 -8q-19 -2 -56 -5t-55 -5q-39 -5 -90 -12v-615h-166v-67zM332 106 v576h291v68q0 30 -31 30h-260v523q42 9 131 16q53 4 162 4q107 0 186 -31q77 -29 125 -100q49 -70 70 -188q20 -97 20 -295q0 -194 -29 -310q-26 -114 -82 -182q-52 -63 -133 -88q-87 -23 -176 -23h-274z" />
<glyph unicode="&#xd1;" horiz-adv-x="1234" d="M158 31q0 -31 30 -31h86v1221q27 -39 80 -134q56 -92 113 -194q52 -87 131 -231q70 -123 135 -240q86 -150 123 -219q7 -12 92 -172q19 -31 39 -31h90v1389q0 30 -30 30h-86v-1192q-43 85 -99 185q-56 105 -123 219q-49 89 -131 231q-85 148 -127 217q-61 110 -108 185 q-16 26 -40.5 68t-33.5 57q-9 18 -18 24q-4 6 -21 6h-102v-1388zM332 1575q0 -7 4 -19q8 -8 20 -8h60q0 7 1 21.5t1 21.5q5 37 6 41q6 19 18 31t35 12q31 0 53 -14q10 -5 64 -45q12 -8 35.5 -24.5t36.5 -24.5q41 -23 90 -23q69 0 108 45q37 46 37 146q0 14 -4 18q-3 8 -20 8 h-60q0 -29 -2 -45q0 -23 -6 -41t-18 -30q-11 -11 -35 -11t-54 15q-8 5 -28.5 20.5t-34.5 24.5q-39 31 -72 49q-34 22 -90 22q-72 0 -108 -45q-37 -43 -37 -145z" />
<glyph unicode="&#xd2;" horiz-adv-x="1247" d="M125 709q0 -222 37 -361q38 -144 100 -223q69 -82 158 -115q92 -30 203 -30q106 0 204 32q96 36 158 113q63 77 102 223q35 132 35 361q0 221 -37 360q-41 153 -100 223q-66 85 -158 115q-82 31 -204 31q-115 0 -203 -33q-90 -29 -158 -113q-64 -78 -102 -223 q-35 -132 -35 -360zM250 709q0 167 18 284q18 120 60 191q44 74 114 108q69 35 181 35q111 0 180 -35q71 -33 115 -108q43 -73 61 -193q18 -117 18 -282q0 -166 -18 -283t-64 -193q-42 -71 -114 -108q-72 -35 -178 -35t-181 35q-70 37 -114 111q-45 79 -62 190 q-16 104 -16 283zM410 1780l172 -226q4 -4 10.5 -11.5t9.5 -10.5q12 -6 25 -6h75q-27 71 -57 123q-12 24 -33 59t-24 41q-9 19 -19 25q-4 6 -22 6h-137z" />
<glyph unicode="&#xd3;" horiz-adv-x="1247" d="M125 709q0 -222 37 -361q38 -144 100 -223q69 -82 158 -115q92 -30 203 -30q106 0 204 32q96 36 158 113q63 77 102 223q35 132 35 361q0 221 -37 360q-41 153 -100 223q-66 85 -158 115q-82 31 -204 31q-115 0 -203 -33q-90 -29 -158 -113q-64 -78 -102 -223 q-35 -132 -35 -360zM250 709q0 167 18 284q18 120 60 191q44 74 114 108q69 35 181 35q111 0 180 -35q71 -33 115 -108q43 -73 61 -193q18 -117 18 -282q0 -166 -18 -283t-64 -193q-42 -71 -114 -108q-72 -35 -178 -35t-181 35q-70 37 -114 111q-45 79 -62 190 q-16 104 -16 283zM551 1532q9 -6 20 -6h66l180 219q12 18 0 27q-6 8 -20 8h-115q-17 -24 -70 -109q-50 -93 -61 -115q-6 -15 0 -24z" />
<glyph unicode="&#xd4;" horiz-adv-x="1247" d="M125 709q0 -222 37 -361q38 -144 100 -223q69 -82 158 -115q92 -30 203 -30q106 0 204 32q96 36 158 113q63 77 102 223q35 132 35 361q0 221 -37 360q-41 153 -100 223q-66 85 -158 115q-82 31 -204 31q-115 0 -203 -33q-90 -29 -158 -113q-64 -78 -102 -223 q-35 -132 -35 -360zM250 709q0 167 18 284q18 120 60 191q44 74 114 108q69 35 181 35q111 0 180 -35q71 -33 115 -108q43 -73 61 -193q18 -117 18 -282q0 -166 -18 -283t-64 -193q-42 -71 -114 -108q-72 -35 -178 -35t-181 35q-70 37 -114 111q-45 79 -62 190 q-16 104 -16 283zM403 1534q8 -8 21 -8h68l131 160l106 -132q11 -14 23 -22q12 -6 24 -6h78q-67 108 -90 137q-39 57 -72 98q-10 17 -18 17q-4 2 -23 2h-84q-41 -52 -84 -111q-5 -6 -75 -110q-10 -17 -5 -25z" />
<glyph unicode="&#xd5;" horiz-adv-x="1247" d="M125 709q0 -222 37 -361q38 -144 100 -223q69 -82 158 -115q92 -30 203 -30q106 0 204 32q96 36 158 113q63 77 102 223q35 132 35 361q0 221 -37 360q-41 153 -100 223q-66 85 -158 115q-82 31 -204 31q-115 0 -203 -33q-90 -29 -158 -113q-64 -78 -102 -223 q-35 -132 -35 -360zM250 709q0 167 18 284q18 120 60 191q44 74 114 108q69 35 181 35q111 0 180 -35q71 -33 115 -108q43 -73 61 -193q18 -117 18 -282q0 -166 -18 -283t-64 -193q-42 -71 -114 -108q-72 -35 -178 -35t-181 35q-70 37 -114 111q-45 79 -62 190 q-16 104 -16 283zM338 1575q0 -7 4 -19q8 -8 20 -8h60q0 7 1 21.5t1 21.5q5 37 6 41q6 18 19 31q12 12 34 12q32 0 54 -14q7 -3 63 -45q13 -8 36.5 -24.5t35.5 -24.5q41 -23 90 -23q69 0 108 45q37 46 37 146q0 14 -4 18q-3 8 -20 8h-60q0 -29 -2 -45q0 -23 -6 -41t-18 -30 q-11 -11 -35 -11q-23 0 -53 15q-9 5 -30.5 21t-33.5 24q-39 31 -72 49q-34 22 -90 22q-72 0 -108 -45q-37 -43 -37 -145z" />
<glyph unicode="&#xd6;" horiz-adv-x="1247" d="M125 709q0 -222 37 -361q38 -144 100 -223q69 -82 158 -115q92 -30 203 -30q106 0 204 32q96 36 158 113q63 77 102 223q35 132 35 361q0 221 -37 360q-41 153 -100 223q-66 85 -158 115q-82 31 -204 31q-115 0 -203 -33q-90 -29 -158 -113q-64 -78 -102 -223 q-35 -132 -35 -360zM250 709q0 167 18 284q18 120 60 191q44 74 114 108q69 35 181 35q111 0 180 -35q71 -33 115 -108q43 -73 61 -193q18 -117 18 -282q0 -166 -18 -283t-64 -193q-42 -71 -114 -108q-72 -35 -178 -35t-181 35q-70 37 -114 111q-45 79 -62 190 q-16 104 -16 283zM371 1655q0 -44 20 -64q21 -18 62 -18q43 0 61 18q21 18 21 64q0 45 -21 63q-19 19 -61 19t-64 -19q-18 -18 -18 -63zM711 1655q0 -44 20 -64q21 -18 62 -18q43 0 61 18q20 17 20 64q0 46 -20 63q-19 19 -61 19t-64 -19q-18 -18 -18 -63z" />
<glyph unicode="&#xd7;" d="M221 961l256 -259l-233 -233q-18 -21 0 -43l49 -49l256 256l235 -238q24 -18 45 0l50 49l-258 258l233 236q25 21 0 43l-49 49l-256 -256l-234 236q-21 18 -45 0z" />
<glyph unicode="&#xd8;" horiz-adv-x="1247" d="M125 709q0 -193 31 -332q31 -136 82 -219l-107 -183q-8 -16 -2 -32q11 -15 27 -15h67l86 148q60 -51 142 -76q76 -20 172 -20q106 0 204 32q96 36 158 113q63 77 102 223q35 132 35 361q0 200 -30 335t-86 218l108 184q12 18 2 31q-5 10 -22 10h-74l-84 -144 q-62 56 -143 74q-79 21 -170 21q-115 0 -203 -33q-90 -29 -158 -113q-64 -78 -102 -223q-35 -132 -35 -360zM250 709q0 167 18 284q18 120 60 191q44 74 114 108q69 35 181 35q88 0 147 -20q60 -17 104 -68l-567 -965q-34 87 -45 183q-12 108 -12 252zM369 178l567 967 q35 -75 47 -182q14 -98 14 -254q0 -166 -18 -283t-64 -193q-42 -71 -114 -108q-72 -35 -178 -35q-75 0 -150 21q-61 21 -104 67z" />
<glyph unicode="&#xd9;" horiz-adv-x="1212" d="M152 481q0 -138 30 -237q29 -92 90 -156q62 -59 142 -82q86 -24 192 -24q108 0 191 24q82 23 143 84q60 60 90 154q31 89 31 239v906q0 30 -31 30h-88v-938q0 -90 -14 -159q-12 -68 -51 -123q-39 -52 -103 -80q-64 -27 -166 -27q-92 0 -164 29q-65 30 -104 78 q-37 51 -55 123q-15 74 -15 159v908q0 30 -30 30h-88v-938zM393 1780l172 -226q4 -4 11 -11.5t10 -10.5q12 -6 24 -6h76q-27 71 -57 123q-12 24 -33 58t-25 42q-10 19 -18 25q-4 6 -23 6h-137z" />
<glyph unicode="&#xda;" horiz-adv-x="1212" d="M152 481q0 -138 30 -237q29 -92 90 -156q62 -59 142 -82q86 -24 192 -24q108 0 191 24q82 23 143 84q60 60 90 154q31 89 31 239v906q0 30 -31 30h-88v-938q0 -90 -14 -159q-12 -68 -51 -123q-39 -52 -103 -80q-64 -27 -166 -27q-92 0 -164 29q-65 30 -104 78 q-37 51 -55 123q-15 74 -15 159v908q0 30 -30 30h-88v-938zM535 1532q9 -6 20 -6h66l180 219q12 18 0 27q-6 8 -21 8h-114q-17 -24 -70 -109q-50 -93 -61 -115q-6 -15 0 -24z" />
<glyph unicode="&#xdb;" horiz-adv-x="1212" d="M152 481q0 -138 30 -237q29 -92 90 -156q62 -59 142 -82q86 -24 192 -24q108 0 191 24q82 23 143 84q60 60 90 154q31 89 31 239v906q0 30 -31 30h-88v-938q0 -90 -14 -159q-12 -68 -51 -123q-39 -52 -103 -80q-64 -27 -166 -27q-92 0 -164 29q-65 30 -104 78 q-37 51 -55 123q-15 74 -15 159v908q0 30 -30 30h-88v-938zM387 1534q8 -8 21 -8h67l131 160l107 -132q13 -16 22 -22q12 -6 25 -6h78q-67 108 -90 137q-39 57 -72 98q-10 17 -19 17q-4 2 -22 2h-84q-41 -52 -84 -111q-12 -15 -76 -110q-10 -16 -4 -25z" />
<glyph unicode="&#xdc;" horiz-adv-x="1212" d="M152 481q0 -138 30 -237q29 -92 90 -156q62 -59 142 -82q86 -24 192 -24q108 0 191 24q82 23 143 84q60 60 90 154q31 89 31 239v906q0 30 -31 30h-88v-938q0 -90 -14 -159q-12 -68 -51 -123q-39 -52 -103 -80q-64 -27 -166 -27q-92 0 -164 29q-65 30 -104 78 q-37 51 -55 123q-15 74 -15 159v908q0 30 -30 30h-88v-938zM354 1655q0 -43 21 -64q21 -18 61 -18q44 0 62 18q20 17 20 64q0 46 -20 63q-19 19 -62 19q-41 0 -63 -19q-19 -19 -19 -63zM694 1655q0 -43 21 -64q21 -18 61 -18q44 0 62 18q20 17 20 64q0 46 -20 63 q-19 19 -62 19q-41 0 -63 -19q-19 -19 -19 -63z" />
<glyph unicode="&#xdd;" horiz-adv-x="1042" d="M49 1419q52 -151 80 -227q56 -138 90 -211q36 -75 109 -211q80 -137 133 -221v-518q0 -31 31 -31h88v549q90 139 131 215q48 87 102 201q39 77 88 198q23 53 76 211q15 45 -29 45h-82q-11 -58 -45 -145q-58 -153 -80 -203q-44 -106 -104 -219q-55 -111 -113 -195 q-43 66 -106 185q-72 145 -94 194q-8 18 -78 189q-48 128 -60 164q-6 19 -14 24q-6 6 -25 6h-98zM451 1532q9 -6 20 -6h66l180 219q12 18 0 27q-6 8 -21 8h-114q-17 -24 -70 -109q-50 -93 -61 -115q-6 -15 0 -24z" />
<glyph unicode="&#xde;" horiz-adv-x="1122" d="M158 31q0 -31 30 -31h88v324q92 -17 179 -27q114 -8 145 -8q98 0 174 24q77 23 133 76q54 54 84 137q29 83 29 205q0 238 -113 342q-110 107 -354 107q-65 0 -139 -6q-81 -7 -138 -17v232q0 30 -30 30h-88v-1388zM276 430v621q36 9 117 16q71 6 162 6q81 0 145 -12 q66 -12 109 -49q43 -35 68 -105q22 -62 22 -176q0 -98 -20 -162q-17 -62 -60 -102q-42 -38 -98 -55q-66 -17 -139 -17q-59 0 -156 11q-140 22 -150 24z" />
<glyph unicode="&#xdf;" horiz-adv-x="1073" d="M139 31q0 -31 31 -31h84v1112q0 137 59 205q60 69 213 69q56 0 97 -8q45 -6 82 -26q34 -16 57 -58q22 -34 22 -98q0 -32 -6 -59q-8 -30 -16 -47q-17 -30 -35 -48q-22 -25 -57 -53q-42 -34 -68 -57q-19 -16 -51 -55q-20 -26 -33 -58q-10 -25 -10 -65q0 -48 12 -82 q12 -30 39 -60q25 -23 72 -55q86 -50 110 -65q55 -30 97 -78q39 -39 39 -131q0 -102 -56 -152q-56 -47 -155 -47q-45 0 -119 8q-43 7 -94 14v-55q0 -26 26 -39q26 -10 82 -20q55 -6 109 -6q148 0 233 73q88 73 88 222q0 63 -14 104q-10 41 -37 82q-25 38 -57 61 q-33 30 -72 50q-88 52 -96 57q-36 23 -60 41q-17 14 -28 37q-9 27 -9 43q0 20 7 37q5 14 18 34l41 41q62 55 70 62q39 33 69 67q23 23 45 60q19 32 25 65q6 25 6 80q0 84 -31 141q-33 61 -82 89q-50 35 -118 47q-54 12 -142 12q-119 0 -192 -33q-74 -30 -119 -84 q-39 -48 -59 -121q-17 -76 -17 -137v-1085z" />
<glyph unicode="&#xe0;" horiz-adv-x="991" d="M92 303q0 -151 80 -237t250 -86q52 0 102 12q36 9 90 31q35 14 76 43q36 23 60 47l4 -82q0 -31 30 -31h76v705q0 84 -16 139q-14 58 -60 108q-43 49 -114 72q-68 25 -187 25q-73 0 -159 -9q-87 -6 -166 -30v-49q0 -35 32 -35q29 0 103 12q77 12 168 12q79 0 135 -12 q54 -12 88 -41q35 -25 47 -74q14 -43 14 -114v-80h-268q-186 0 -287 -76q-98 -73 -98 -250zM201 305q0 45 12 88t43 74q25 29 84 49q59 19 133 19h272v-318q-51 -51 -131 -98q-76 -43 -180 -43q-105 0 -170 53q-63 57 -63 176zM285 1450l155 -244q19 -28 45 -28h70 q-15 39 -53 127q-24 59 -51 114q-12 31 -41 31h-125z" />
<glyph unicode="&#xe1;" horiz-adv-x="991" d="M92 303q0 -151 80 -237t250 -86q52 0 102 12q36 9 90 31q35 14 76 43q36 23 60 47l4 -82q0 -31 30 -31h76v705q0 84 -16 139q-14 58 -60 108q-43 49 -114 72q-68 25 -187 25q-73 0 -159 -9q-87 -6 -166 -30v-49q0 -35 32 -35q29 0 103 12q77 12 168 12q79 0 135 -12 q54 -12 88 -41q35 -25 47 -74q14 -43 14 -114v-80h-268q-186 0 -287 -76q-98 -73 -98 -250zM201 305q0 45 12 88t43 74q25 29 84 49q59 19 133 19h272v-318q-51 -51 -131 -98q-76 -43 -180 -43q-105 0 -170 53q-63 57 -63 176zM426 1186q8 -8 20 -8h64l164 237q12 17 2 27 q-4 8 -23 8h-108q-6 -12 -28.5 -53.5t-33.5 -65.5q-18 -34 -57 -123q-6 -13 0 -22z" />
<glyph unicode="&#xe2;" horiz-adv-x="991" d="M92 303q0 -151 80 -237t250 -86q52 0 102 12q36 9 90 31q35 14 76 43q36 23 60 47l4 -82q0 -31 30 -31h76v705q0 84 -16 139q-14 58 -60 108q-43 49 -114 72q-68 25 -187 25q-73 0 -159 -9q-87 -6 -166 -30v-49q0 -35 32 -35q29 0 103 12q77 12 168 12q79 0 135 -12 q54 -12 88 -41q35 -25 47 -74q14 -43 14 -114v-80h-268q-186 0 -287 -76q-98 -73 -98 -250zM201 305q0 45 12 88t43 74q25 29 84 49q59 19 133 19h272v-318q-51 -51 -131 -98q-76 -43 -180 -43q-105 0 -170 53q-63 57 -63 176zM276 1184q6 -6 19 -6h67l125 180l105 -152 q22 -28 47 -28h72q-52 95 -82 139q-42 71 -76 115q-10 16 -18 16q-4 2 -23 2h-76q-16 -22 -88 -129q-10 -16 -31.5 -54t-35.5 -59q-10 -17 -5 -24z" />
<glyph unicode="&#xe3;" horiz-adv-x="991" d="M92 303q0 -151 80 -237t250 -86q52 0 102 12q36 9 90 31q35 14 76 43q36 23 60 47l4 -82q0 -31 30 -31h76v705q0 84 -16 139q-14 58 -60 108q-43 49 -114 72q-68 25 -187 25q-73 0 -159 -9q-87 -6 -166 -30v-49q0 -35 32 -35q29 0 103 12q77 12 168 12q79 0 135 -12 q54 -12 88 -41q35 -25 47 -74q14 -43 14 -114v-80h-268q-186 0 -287 -76q-98 -73 -98 -250zM201 305q0 45 12 88t43 74q25 29 84 49q59 19 133 19h272v-318q-51 -51 -131 -98q-76 -43 -180 -43q-105 0 -170 53q-63 57 -63 176zM203 1225q0 -7 4 -19q8 -8 20 -8h60 q0 7 1 21.5t1 21.5q5 37 6 41q7 20 18 31q12 12 35 12q31 0 53 -14q10 -5 64 -45q13 -8 36 -24.5t36 -24.5q41 -23 90 -23q69 0 108 45q37 46 37 145q0 15 -4 19q-3 8 -20 8h-60q0 -29 -2 -45q0 -23 -6 -41q-6 -19 -18 -31q-10 -10 -35 -10q-26 0 -54 14q-8 5 -28.5 20.5 t-34.5 24.5q-43 34 -72 50q-34 22 -90 22q-72 0 -108 -45q-37 -43 -37 -145z" />
<glyph unicode="&#xe4;" horiz-adv-x="991" d="M92 303q0 -151 80 -237t250 -86q52 0 102 12q36 9 90 31q35 14 76 43q36 23 60 47l4 -82q0 -31 30 -31h76v705q0 84 -16 139q-14 58 -60 108q-43 49 -114 72q-68 25 -187 25q-73 0 -159 -9q-87 -6 -166 -30v-49q0 -35 32 -35q29 0 103 12q77 12 168 12q79 0 135 -12 q54 -12 88 -41q35 -25 47 -74q14 -43 14 -114v-80h-268q-186 0 -287 -76q-98 -73 -98 -250zM201 305q0 45 12 88t43 74q25 29 84 49q59 19 133 19h272v-318q-51 -51 -131 -98q-76 -43 -180 -43q-105 0 -170 53q-63 57 -63 176zM236 1313q0 -44 20 -64q21 -18 61 -18 q44 0 62 18q20 17 20 64q0 46 -20 63q-19 19 -62 19q-41 0 -63 -19q-18 -18 -18 -63zM575 1313q0 -43 21 -64q21 -18 61 -18q44 0 62 18q20 17 20 64q0 46 -20 63q-19 19 -62 19q-41 0 -63 -19q-19 -19 -19 -63z" />
<glyph unicode="&#xe5;" horiz-adv-x="991" d="M92 303q0 -151 80 -237t250 -86q52 0 102 12q36 9 90 31q35 14 76 43q36 23 60 47l4 -82q0 -31 30 -31h76v705q0 84 -16 139q-14 58 -60 108q-43 49 -114 72q-68 25 -187 25q-73 0 -159 -9q-87 -6 -166 -30v-49q0 -35 32 -35q29 0 103 12q77 12 168 12q79 0 135 -12 q54 -12 88 -41q35 -25 47 -74q14 -43 14 -114v-80h-268q-186 0 -287 -76q-98 -73 -98 -250zM201 305q0 45 12 88t43 74q25 29 84 49q59 19 133 19h272v-318q-51 -51 -131 -98q-76 -43 -180 -43q-105 0 -170 53q-63 57 -63 176zM297 1354q0 -83 47 -133q50 -50 143 -50 q97 0 144 50q47 47 47 133t-47 133q-46 49 -144 49q-94 0 -143 -49q-47 -50 -47 -133zM385 1354q0 56 29 82q28 22 73 22q49 0 76 -24q27 -22 27 -80q0 -59 -29 -82q-26 -23 -74 -23q-44 0 -75 25q-27 24 -27 80z" />
<glyph unicode="&#xe6;" horiz-adv-x="1570" d="M104 291q0 -155 93 -236q90 -75 247 -75q126 0 211 43q86 42 146 96q49 -73 127 -107q80 -30 202 -30q88 0 168 12q86 12 125 26v54q0 12 -8 20q-5 10 -24 10q-23 0 -84 -12q-49 -10 -158 -10q-98 0 -162 22q-58 24 -92 70q-29 48 -41 121q-11 89 -16 176h610q7 29 10 66 q4 29 4 81q0 102 -16 173q-16 87 -55 139q-38 57 -109 92q-59 33 -180 33q-108 0 -180 -41q-77 -42 -125 -131q-30 77 -107 121q-71 45 -209 45q-61 0 -147 -9q-85 -6 -164 -30v-49q0 -35 33 -35q26 0 100 12t156 12q152 0 209 -57q59 -53 59 -186v-93h-256q-199 0 -283 -75 q-84 -72 -84 -248zM213 293q0 28 8 82q9 44 33 74q28 35 76 53q50 20 137 20h260v-12q0 -74 8 -172q9 -70 27 -133q-44 -39 -127 -88q-74 -41 -174 -41q-47 0 -99 10q-39 11 -77 37q-38 34 -54 67q-18 44 -18 103zM838 567q3 93 14 156q11 67 43 123q29 53 78 80 q46 28 129 28q80 0 125 -22q51 -22 76 -62q26 -36 36 -104q11 -56 11 -145v-27q0 -17 -2 -27h-510z" />
<glyph unicode="&#xe7;" horiz-adv-x="845" d="M113 510q0 -110 18 -205q19 -94 55 -160q39 -66 105 -110q61 -40 160 -49l-33 -82q-15 -43 -15 -51q0 -14 11 -25q4 -2 32 -10l21 -4q38 -6 57 -19q19 -8 19 -39q0 -45 -35 -53q-46 -8 -88 -8h-66v-43q0 -18 21 -25q33 -10 90 -10q53 0 88 12q32 10 55 33q21 21 27 45 q6 18 6 49q0 50 -27 80q-25 31 -92 43l-30 6l40 97q66 3 132 12q74 13 110 26v54q0 12 -8 20q-5 10 -25 10q-23 0 -84 -12q-49 -10 -131 -10q-64 0 -120 18t-95 66q-38 50 -61 133q-21 85 -21 219q0 120 19 207q17 81 55 131q39 52 92 72q46 20 129 20q67 0 119 -8 q78 -8 123 -16v57q0 28 -27 37q-12 6 -39 12q-19 5 -57 8q-30 6 -68 9q-13 2 -65 2q-197 0 -297 -127t-100 -412z" />
<glyph unicode="&#xe8;" horiz-adv-x="1001" d="M113 510q0 -134 26 -248q26 -99 82 -164q54 -60 137 -90q82 -26 199 -26q93 3 172 12q86 12 125 26v54q0 12 -8 20q-5 10 -25 10q-25 0 -86 -12q-51 -10 -160 -10q-96 0 -167 22q-68 25 -105 68q-35 46 -53 121q-18 87 -23 178h652q7 29 10 66q4 29 4 81q0 102 -16 173 q-16 85 -56 139q-38 57 -112 92q-65 33 -185 33q-96 0 -178 -31q-76 -30 -129 -94q-51 -62 -78 -168q-26 -114 -26 -252zM227 567q2 71 17 156q14 70 49 123q36 54 90 80q55 28 141 28q84 0 129 -22q54 -23 78 -62q30 -41 39 -104q10 -51 10 -145v-27q0 -17 -2 -27h-551z M301 1450l156 -244q19 -28 45 -28h69q-15 39 -53 127q-24 59 -51 114q-12 31 -41 31h-125z" />
<glyph unicode="&#xe9;" horiz-adv-x="1001" d="M113 510q0 -134 26 -248q26 -99 82 -164q54 -60 137 -90q82 -26 199 -26q93 3 172 12q86 12 125 26v54q0 12 -8 20q-5 10 -25 10q-25 0 -86 -12q-51 -10 -160 -10q-96 0 -167 22q-68 25 -105 68q-35 46 -53 121q-18 87 -23 178h652q7 29 10 66q4 29 4 81q0 102 -16 173 q-16 85 -56 139q-38 57 -112 92q-65 33 -185 33q-96 0 -178 -31q-76 -30 -129 -94q-51 -62 -78 -168q-26 -114 -26 -252zM227 567q2 71 17 156q14 70 49 123q36 54 90 80q55 28 141 28q84 0 129 -22q54 -23 78 -62q30 -41 39 -104q10 -51 10 -145v-27q0 -17 -2 -27h-551z M442 1186q8 -8 21 -8h63l164 237q12 17 2 27q-4 8 -22 8h-109q-60 -118 -61 -119q-25 -49 -58 -123q-6 -13 0 -22z" />
<glyph unicode="&#xea;" horiz-adv-x="1001" d="M113 510q0 -134 26 -248q26 -99 82 -164q54 -60 137 -90q82 -26 199 -26q93 3 172 12q86 12 125 26v54q0 12 -8 20q-5 10 -25 10q-25 0 -86 -12q-51 -10 -160 -10q-96 0 -167 22q-68 25 -105 68q-35 46 -53 121q-18 87 -23 178h652q7 29 10 66q4 29 4 81q0 102 -16 173 q-16 85 -56 139q-38 57 -112 92q-65 33 -185 33q-96 0 -178 -31q-76 -30 -129 -94q-51 -62 -78 -168q-26 -114 -26 -252zM227 567q2 71 17 156q14 70 49 123q36 54 90 80q55 28 141 28q84 0 129 -22q54 -23 78 -62q30 -41 39 -104q10 -51 10 -145v-27q0 -17 -2 -27h-551z M293 1184q6 -6 18 -6h68l125 180l104 -152q22 -28 47 -28h72q-52 95 -82 139q-42 71 -76 115q-10 16 -18 16q-4 2 -23 2h-75q-15 -22 -88 -129q-10 -16 -32 -54t-36 -59q-9 -16 -4 -24z" />
<glyph unicode="&#xeb;" horiz-adv-x="1001" d="M113 510q0 -134 26 -248q26 -99 82 -164q54 -60 137 -90q82 -26 199 -26q93 3 172 12q86 12 125 26v54q0 12 -8 20q-5 10 -25 10q-25 0 -86 -12q-51 -10 -160 -10q-96 0 -167 22q-68 25 -105 68q-35 46 -53 121q-18 87 -23 178h652q7 29 10 66q4 29 4 81q0 102 -16 173 q-16 85 -56 139q-38 57 -112 92q-65 33 -185 33q-96 0 -178 -31q-76 -30 -129 -94q-51 -62 -78 -168q-26 -114 -26 -252zM227 567q2 71 17 156q14 70 49 123q36 54 90 80q55 28 141 28q84 0 129 -22q54 -23 78 -62q30 -41 39 -104q10 -51 10 -145v-27q0 -17 -2 -27h-551z M252 1313q0 -44 20 -64q21 -18 62 -18q43 0 61 18q21 18 21 64q0 45 -21 63q-19 19 -61 19t-64 -19q-18 -18 -18 -63zM592 1313q0 -44 20 -64q21 -18 62 -18q43 0 61 18q21 18 21 64q0 45 -21 63q-19 19 -61 19t-64 -19q-18 -18 -18 -63z" />
<glyph unicode="&#xec;" horiz-adv-x="401" d="M2 1450l156 -244q19 -28 45 -28h69q-15 39 -53 127q-24 59 -51 114q-12 31 -41 31h-125zM143 31q0 -31 31 -31h84v999q0 31 -31 31h-84v-999z" />
<glyph unicode="&#xed;" horiz-adv-x="401" d="M143 31q0 -31 31 -31h84v999q0 31 -31 31h-84v-999zM143 1186q8 -8 21 -8h63l164 237q12 17 2 27q-4 8 -22 8h-109q-60 -118 -61 -119q-25 -49 -58 -123q-6 -13 0 -22z" />
<glyph unicode="&#xee;" horiz-adv-x="401" d="M-6 1184q6 -6 18 -6h68l125 180l104 -152q22 -28 47 -28h72q-52 95 -82 139q-42 71 -76 115q-10 16 -18 16q-4 2 -23 2h-75q-15 -22 -88 -129q-10 -16 -32 -54t-36 -59q-9 -16 -4 -24zM143 31q0 -31 31 -31h84v999q0 31 -31 31h-84v-999z" />
<glyph unicode="&#xef;" horiz-adv-x="401" d="M-47 1313q0 -44 20 -64q21 -18 62 -18q43 0 61 18q21 18 21 64q0 45 -21 63q-19 19 -61 19t-64 -19q-18 -18 -18 -63zM143 31q0 -31 31 -31h84v999q0 31 -31 31h-84v-999zM293 1313q0 -44 20 -64q21 -18 62 -18q43 0 61 18q21 18 21 64q0 45 -21 63q-19 19 -61 19 t-64 -19q-18 -18 -18 -63z" />
<glyph unicode="&#xf0;" horiz-adv-x="1052" d="M113 508q0 -74 14 -184q15 -92 59 -172q45 -74 125 -127q83 -50 215 -50q133 0 217 52q79 50 123 131q47 90 58 184q14 98 14 211q0 137 -20 240q-19 114 -54 198q-34 89 -84 164q-56 87 -106 139l207 80l-19 51q-9 29 -43 17l-211 -82q-20 23 -47 43q-1 1 -19.5 18 t-29.5 25q-23 19 -33 22q-3 2 -24 2h-115q97 -78 168 -149l-199 -76l19 -51q13 -28 43 -16l202 77q53 -53 107 -135q51 -71 80 -155q-40 22 -111 41q-65 18 -143 18q-206 0 -299 -133q-94 -136 -94 -383zM229 508q0 74 15 166q15 75 45 131q39 63 86 88q50 31 139 31 q90 0 148 -17q66 -16 131 -55q18 -59 24 -137q6 -51 6 -162q0 -71 -6 -156q-6 -88 -33 -153q-28 -73 -88 -121q-56 -47 -170 -47q-91 0 -155 39q-55 38 -90 100q-28 58 -41 139q-11 97 -11 154z" />
<glyph unicode="&#xf1;" horiz-adv-x="1048" d="M139 31q0 -31 31 -31h84v811q24 27 51 49q25 23 72 47q44 24 88 35q40 12 102 12q108 0 172 -61q64 -58 64 -201v-661q0 -31 31 -31h84v696q0 189 -89 275q-84 84 -237 84q-62 0 -117 -15q-56 -13 -96 -32q-35 -14 -76 -43q-40 -32 -53 -47l-4 81q0 31 -31 31h-76v-999z M244 1225q0 -7 4 -19q8 -8 20 -8h60q0 7 1 21.5t1 21.5q5 37 6 41q6 20 18 31q12 12 35 12q31 0 53 -14q10 -5 64 -45q12 -8 35.5 -24.5t36.5 -24.5q41 -23 90 -23q69 0 108 45q37 46 37 145q0 15 -4 19q-3 8 -21 8h-59q0 -29 -2 -45q0 -23 -6 -41t-19 -31q-10 -10 -34 -10 q-26 0 -54 14q-8 5 -28.5 20.5t-34.5 24.5q-43 34 -72 50q-34 22 -90 22q-72 0 -108 -45q-37 -43 -37 -145z" />
<glyph unicode="&#xf2;" horiz-adv-x="1060" d="M113 516q0 -276 98 -410q98 -131 319 -131q220 0 320 134q98 134 98 407q0 277 -98 408q-96 131 -320 131q-221 0 -319 -133q-98 -131 -98 -406zM229 516q0 118 19 205q16 78 57 135q38 52 94 76q54 22 131 22q78 0 134 -24q59 -24 94 -76q37 -47 55 -135q18 -83 18 -203 t-18 -205q-18 -84 -57 -137q-38 -53 -94 -76q-51 -22 -132 -22q-74 0 -133 24q-53 23 -94 76q-38 56 -55 135q-19 90 -19 205zM328 1450l155 -244q19 -28 45 -28h70q-15 39 -53 127q-24 59 -51 114q-12 31 -41 31h-125z" />
<glyph unicode="&#xf3;" horiz-adv-x="1060" d="M113 516q0 -276 98 -410q98 -131 319 -131q220 0 320 134q98 134 98 407q0 277 -98 408q-96 131 -320 131q-221 0 -319 -133q-98 -131 -98 -406zM229 516q0 118 19 205q16 78 57 135q38 52 94 76q54 22 131 22q78 0 134 -24q59 -24 94 -76q37 -47 55 -135q18 -83 18 -203 t-18 -205q-18 -84 -57 -137q-38 -53 -94 -76q-51 -22 -132 -22q-74 0 -133 24q-53 23 -94 76q-38 56 -55 135q-19 90 -19 205zM469 1186q8 -8 20 -8h64l164 237q12 17 2 27q-4 8 -23 8h-108q-6 -12 -28.5 -53.5t-33.5 -65.5q-18 -34 -57 -123q-6 -13 0 -22z" />
<glyph unicode="&#xf4;" horiz-adv-x="1060" d="M113 516q0 -276 98 -410q98 -131 319 -131q220 0 320 134q98 134 98 407q0 277 -98 408q-96 131 -320 131q-221 0 -319 -133q-98 -131 -98 -406zM229 516q0 118 19 205q16 78 57 135q38 52 94 76q54 22 131 22q78 0 134 -24q59 -24 94 -76q37 -47 55 -135q18 -83 18 -203 t-18 -205q-18 -84 -57 -137q-38 -53 -94 -76q-51 -22 -132 -22q-74 0 -133 24q-53 23 -94 76q-38 56 -55 135q-19 90 -19 205zM319 1184q6 -6 19 -6h68l124 180l105 -152q22 -28 47 -28h72q-52 95 -82 139q-42 71 -76 115q-10 16 -18 16q-4 2 -23 2h-76q-15 -22 -88 -129 q-10 -16 -31.5 -54t-35.5 -59q-10 -17 -5 -24z" />
<glyph unicode="&#xf5;" horiz-adv-x="1060" d="M113 516q0 -276 98 -410q98 -131 319 -131q220 0 320 134q98 134 98 407q0 277 -98 408q-96 131 -320 131q-221 0 -319 -133q-98 -131 -98 -406zM229 516q0 118 19 205q16 78 57 135q38 52 94 76q54 22 131 22q78 0 134 -24q59 -24 94 -76q37 -47 55 -135q18 -83 18 -203 t-18 -205q-18 -84 -57 -137q-38 -53 -94 -76q-51 -22 -132 -22q-74 0 -133 24q-53 23 -94 76q-38 56 -55 135q-19 90 -19 205zM246 1225q0 -7 4 -19q8 -8 20 -8h60q0 7 1 21.5t1 21.5q5 37 6 41q6 20 18 31q12 12 35 12q31 0 53 -14q10 -5 64 -45q13 -8 36 -24.5t36 -24.5 q41 -23 90 -23q69 0 108 45q37 46 37 145q0 15 -4 19q-3 8 -20 8h-60q0 -29 -2 -45q0 -23 -6 -41q-7 -19 -18 -31q-10 -10 -35 -10q-26 0 -54 14q-8 5 -28.5 20.5t-34.5 24.5q-43 34 -72 50q-34 22 -90 22q-72 0 -108 -45q-37 -43 -37 -145z" />
<glyph unicode="&#xf6;" horiz-adv-x="1060" d="M113 516q0 -276 98 -410q98 -131 319 -131q220 0 320 134q98 134 98 407q0 277 -98 408q-96 131 -320 131q-221 0 -319 -133q-98 -131 -98 -406zM229 516q0 118 19 205q16 78 57 135q38 52 94 76q54 22 131 22q78 0 134 -24q59 -24 94 -76q37 -47 55 -135q18 -83 18 -203 t-18 -205q-18 -84 -57 -137q-38 -53 -94 -76q-51 -22 -132 -22q-74 0 -133 24q-53 23 -94 76q-38 56 -55 135q-19 90 -19 205zM279 1313q0 -44 20 -64q21 -18 61 -18q44 0 62 18q20 17 20 64q0 46 -20 63q-19 19 -62 19q-41 0 -63 -19q-18 -18 -18 -63zM618 1313 q0 -43 21 -64q21 -18 61 -18q44 0 62 18q20 17 20 64q0 46 -20 63q-19 19 -62 19q-41 0 -63 -19q-19 -19 -19 -63z" />
<glyph unicode="&#xf7;" d="M154 686q0 -31 30 -31h762v68q0 31 -31 31h-761v-68zM457 381q0 -48 22 -70q27 -20 70 -20q45 0 72 20q22 19 22 70q0 50 -25 72q-20 20 -69 20q-48 0 -70 -22t-22 -70zM457 1024q0 -48 22 -70q27 -20 70 -20q45 0 72 20q22 19 22 70q0 50 -25 72q-20 20 -69 20 q-48 0 -70 -22t-22 -70z" />
<glyph unicode="&#xf8;" horiz-adv-x="1060" d="M76 -61q6 -11 18 -11h72l92 129q102 -82 272 -82q220 0 320 134q98 134 98 407q0 135 -20 225q-17 94 -66 162l115 162q11 13 4 27q-5 10 -18 10h-70l-92 -129q-94 82 -271 82q-221 0 -319 -133q-98 -131 -98 -406q0 -256 84 -387l-117 -164q-10 -14 -4 -26zM229 516 q0 118 19 205q16 78 57 135q38 52 94 76q54 22 131 22q135 0 205 -73l-465 -648q-41 100 -41 283zM324 150l464 651q43 -101 43 -285q0 -120 -18 -205q-18 -84 -57 -137q-38 -53 -94 -76q-51 -22 -132 -22q-132 0 -206 74z" />
<glyph unicode="&#xf9;" horiz-adv-x="1048" d="M131 334q0 -187 88 -275q87 -84 238 -84q59 0 116 13q41 9 97 32q44 21 75 46q23 16 54 47l4 -82q0 -31 31 -31h75v999q0 31 -30 31h-84v-811q-8 -10 -52 -49q-32 -25 -71 -47q-39 -20 -88 -35q-50 -12 -103 -12q-105 0 -172 61q-63 60 -63 201v661q0 31 -31 31h-84v-696 zM317 1450l156 -244q19 -28 45 -28h70q-15 39 -53 127q-19 45 -52 114q-12 31 -41 31h-125z" />
<glyph unicode="&#xfa;" horiz-adv-x="1048" d="M131 334q0 -187 88 -275q87 -84 238 -84q59 0 116 13q41 9 97 32q44 21 75 46q23 16 54 47l4 -82q0 -31 31 -31h75v999q0 31 -30 31h-84v-811q-8 -10 -52 -49q-32 -25 -71 -47q-39 -20 -88 -35q-50 -12 -103 -12q-105 0 -172 61q-63 60 -63 201v661q0 31 -31 31h-84v-696 zM459 1186q8 -8 20 -8h64l164 237q12 17 2 27q-4 8 -23 8h-108q-6 -12 -28.5 -53.5t-33.5 -65.5q-17 -34 -57 -123q-6 -13 0 -22z" />
<glyph unicode="&#xfb;" horiz-adv-x="1048" d="M131 334q0 -187 88 -275q87 -84 238 -84q59 0 116 13q41 9 97 32q44 21 75 46q23 16 54 47l4 -82q0 -31 31 -31h75v999q0 31 -30 31h-84v-811q-8 -10 -52 -49q-32 -25 -71 -47q-39 -20 -88 -35q-50 -12 -103 -12q-105 0 -172 61q-63 60 -63 201v661q0 31 -31 31h-84v-696 zM309 1184q6 -6 19 -6h67l125 180l105 -152q22 -28 47 -28h71q-57 103 -81 139q-42 71 -76 115q-10 16 -19 16q-4 2 -22 2h-76q-15 -22 -88 -129q-10 -16 -32 -54t-36 -59q-9 -16 -4 -24z" />
<glyph unicode="&#xfc;" horiz-adv-x="1048" d="M131 334q0 -187 88 -275q87 -84 238 -84q59 0 116 13q41 9 97 32q44 21 75 46q23 16 54 47l4 -82q0 -31 31 -31h75v999q0 31 -30 31h-84v-811q-8 -10 -52 -49q-32 -25 -71 -47q-39 -20 -88 -35q-50 -12 -103 -12q-105 0 -172 61q-63 60 -63 201v661q0 31 -31 31h-84v-696 zM268 1313q0 -43 21 -64q21 -18 61 -18q44 0 62 18q20 17 20 64q0 46 -20 63q-19 19 -62 19q-41 0 -63 -19q-19 -19 -19 -63zM608 1313q0 -43 21 -64q21 -18 61 -18q44 0 62 18q20 17 20 64q0 46 -20 63q-19 19 -62 19q-41 0 -63 -19q-19 -19 -19 -63z" />
<glyph unicode="&#xfd;" horiz-adv-x="933" d="M57 1030q15 -123 52 -256q37 -131 86 -264q65 -165 110 -258q68 -139 125 -240q-52 -94 -70 -121q-31 -51 -63 -86q-24 -28 -68 -49q-40 -16 -84 -16h-32q-5 0 -17 1t-20 1v-49q0 -24 20 -37q27 -12 74 -12q63 0 117 28q52 28 98 80q44 49 90 127q39 65 94 174 q119 242 187 463q71 223 108 483q3 16 -4 23q-5 8 -24 8h-82q-38 -259 -101 -483q-61 -224 -161 -428q-60 110 -101 198q-32 69 -90 218q-26 68 -74 231q-29 116 -47 233q0 17 -8 25q-4 6 -27 6h-88zM406 1186q8 -8 20 -8h63l164 237q12 17 2 27q-4 8 -22 8h-109 q-61 -118 -61 -119q-18 -34 -57 -123q-6 -13 0 -22z" />
<glyph unicode="&#xfe;" horiz-adv-x="1044" d="M139 -317q0 -31 31 -31h84v395q64 -26 100 -39q71 -22 166 -22q119 0 197 37t127 104q49 70 67 170q21 105 21 231q0 263 -94 394q-90 133 -279 133q-107 0 -178 -29q-68 -25 -127 -68v461q0 32 -12 41q-10 10 -39 10h-64v-1787zM254 145v709q50 38 121 70q71 30 164 30 q140 0 206 -100q70 -98 70 -334q0 -130 -20 -211q-18 -81 -58 -133q-38 -50 -96 -70q-65 -20 -135 -20q-78 0 -139 18q-56 16 -113 41z" />
<glyph unicode="&#xff;" horiz-adv-x="933" d="M57 1030q15 -123 52 -256q37 -131 86 -264q65 -165 110 -258q68 -139 125 -240q-52 -94 -70 -121q-31 -51 -63 -86q-24 -28 -68 -49q-40 -16 -84 -16h-32q-5 0 -17 1t-20 1v-49q0 -24 20 -37q27 -12 74 -12q63 0 117 28q52 28 98 80q44 49 90 127q39 65 94 174 q119 242 187 463q71 223 108 483q3 16 -4 23q-5 8 -24 8h-82q-38 -259 -101 -483q-61 -224 -161 -428q-60 110 -101 198q-32 69 -90 218q-26 68 -74 231q-29 116 -47 233q0 17 -8 25q-4 6 -27 6h-88zM215 1313q0 -43 21 -64q21 -18 61 -18q43 0 61 18q21 18 21 64 q0 45 -21 63q-19 19 -61 19t-64 -19q-18 -18 -18 -63zM555 1313q0 -44 20 -64q21 -18 62 -18q43 0 61 18q21 18 21 64q0 45 -21 63q-19 19 -61 19t-64 -19q-18 -18 -18 -63z" />
<glyph unicode="&#x152;" horiz-adv-x="1656" d="M125 709q0 -225 39 -375q40 -139 108 -219q71 -77 166 -107q95 -26 211 -26q26 0 92 4q54 7 90 14h740v76q0 30 -31 30h-586v553h543v76q0 31 -31 31h-512v547h592v76q0 30 -30 30h-680q-81 19 -164 19q-106 0 -211 -31q-96 -29 -174 -113q-72 -78 -119 -223 q-43 -139 -43 -362zM250 709q0 159 26 286q27 119 78 191q57 76 131 108q70 33 187 33q96 0 164 -27v-1183q-53 -17 -88 -21q-33 -4 -99 -4q-107 0 -188 35q-74 36 -123 109q-47 75 -68 190q-20 130 -20 283z" />
<glyph unicode="&#x153;" horiz-adv-x="1650" d="M113 516q0 -276 98 -410q98 -131 311 -131q131 0 211 50q81 49 125 149q43 -101 125 -147q88 -45 227 -45q88 0 168 12q86 12 125 26v54q0 12 -8 20q-5 10 -25 10q-22 0 -84 -12q-49 -10 -157 -10q-98 0 -162 22q-58 24 -92 70q-29 48 -41 121q-11 89 -16 176h610 q7 29 10 66q4 29 4 81q0 102 -16 173q-16 85 -56 139q-38 58 -108 92q-59 33 -180 33q-113 0 -195 -49q-78 -49 -127 -158q-79 207 -338 207q-215 0 -313 -133q-96 -128 -96 -406zM229 516q0 118 19 205q17 82 55 135q35 52 90 76q51 22 129 22q72 0 125 -24q55 -24 90 -76 q36 -51 54 -135q16 -73 16 -203q0 -115 -19 -205q-19 -86 -53 -137q-39 -55 -88 -76q-48 -22 -125 -22q-74 0 -129 24t-92 76q-35 51 -53 135q-19 90 -19 205zM918 567q3 93 14 156q11 67 43 123q29 53 78 80q46 28 129 28q80 0 125 -22q50 -21 75 -62q28 -37 37 -104 q11 -56 11 -145v-27q0 -12 -3 -27h-509z" />
<glyph unicode="&#x178;" horiz-adv-x="1042" d="M49 1419q52 -151 80 -227q56 -138 90 -211q36 -75 109 -211q80 -137 133 -221v-518q0 -31 31 -31h88v549q90 139 131 215q48 87 102 201q39 77 88 198q23 53 76 211q15 45 -29 45h-82q-11 -58 -45 -145q-58 -153 -80 -203q-44 -106 -104 -219q-55 -111 -113 -195 q-43 66 -106 185q-72 145 -94 194q-8 18 -78 189q-48 128 -60 164q-6 19 -14 24q-6 6 -25 6h-98zM270 1655q0 -43 21 -64q21 -18 61 -18q44 0 62 18q20 17 20 64q0 46 -20 63q-19 19 -62 19q-41 0 -63 -19q-19 -19 -19 -63zM610 1655q0 -43 21 -64q21 -18 61 -18q44 0 62 18 q20 17 20 64q0 46 -20 63q-19 19 -62 19q-41 0 -63 -19q-19 -19 -19 -63z" />
<glyph unicode="&#x2c6;" horiz-adv-x="884" d="M231 1184q6 -6 19 -6h67l125 180l105 -152q22 -28 47 -28h72q-52 95 -82 139q-42 71 -76 115q-10 16 -19 16q-4 2 -22 2h-76q-16 -22 -88 -129q-10 -16 -31.5 -54t-35.5 -59q-10 -17 -5 -24z" />
<glyph unicode="&#x2dc;" horiz-adv-x="884" d="M158 1225q0 -7 4 -19q8 -8 20 -8h60q0 7 1 21.5t1 21.5q5 37 6 41q6 20 18 31q12 12 35 12q31 0 53 -14q10 -5 64 -45q13 -8 36 -24.5t36 -24.5q41 -23 90 -23q69 0 108 45q37 46 37 145q0 15 -4 19q-3 8 -21 8h-59q0 -29 -2 -45q0 -23 -6 -41t-19 -31q-10 -10 -34 -10 q-26 0 -54 14q-8 5 -28.5 20.5t-34.5 24.5q-43 34 -72 50q-34 22 -90 22q-72 0 -108 -45q-37 -43 -37 -145z" />
<glyph unicode="&#x2000;" horiz-adv-x="930" />
<glyph unicode="&#x2001;" horiz-adv-x="1860" />
<glyph unicode="&#x2002;" horiz-adv-x="930" />
<glyph unicode="&#x2003;" horiz-adv-x="1860" />
<glyph unicode="&#x2004;" horiz-adv-x="620" />
<glyph unicode="&#x2005;" horiz-adv-x="465" />
<glyph unicode="&#x2006;" horiz-adv-x="310" />
<glyph unicode="&#x2007;" horiz-adv-x="310" />
<glyph unicode="&#x2008;" horiz-adv-x="232" />
<glyph unicode="&#x2009;" horiz-adv-x="372" />
<glyph unicode="&#x200a;" horiz-adv-x="103" />
<glyph unicode="&#x2010;" horiz-adv-x="784" d="M98 539q0 -31 31 -31h557v72q0 30 -31 30h-557v-71z" />
<glyph unicode="&#x2011;" horiz-adv-x="784" d="M98 539q0 -31 31 -31h557v72q0 30 -31 30h-557v-71z" />
<glyph unicode="&#x2012;" horiz-adv-x="784" d="M98 539q0 -31 31 -31h557v72q0 30 -31 30h-557v-71z" />
<glyph unicode="&#x2013;" horiz-adv-x="1024" d="M0 594h1024v102h-1024v-102z" />
<glyph unicode="&#x2014;" horiz-adv-x="2048" d="M0 594h2048v102h-2048v-102z" />
<glyph unicode="&#x2018;" horiz-adv-x="407" d="M106 1110q0 -51 25 -76q23 -20 74 -20q96 0 96 94q0 79 -72 88l64 178q6 15 6 27q0 20 -23 20h-51l-73 -166q-27 -62 -31 -73q-15 -47 -15 -72z" />
<glyph unicode="&#x2019;" horiz-adv-x="407" d="M106 1329q0 -76 72 -88l-63 -178q-6 -15 -6 -27q0 -20 22 -20h51l74 166q23 48 31 73q14 38 14 72q0 54 -25 76q-20 20 -73 20q-97 0 -97 -94z" />
<glyph unicode="&#x201a;" horiz-adv-x="407" d="M106 92q0 -76 72 -88l-63 -178q-6 -15 -6 -27q0 -20 22 -20h51l74 166q23 48 31 73q14 38 14 72q0 54 -25 76q-20 20 -73 20q-97 0 -97 -94z" />
<glyph unicode="&#x201c;" horiz-adv-x="700" d="M106 1110q0 -51 25 -76q23 -20 74 -20q96 0 96 94q0 79 -72 88l64 178q6 15 6 27q0 20 -23 20h-51l-73 -166q-27 -62 -31 -73q-15 -47 -15 -72zM399 1110q0 -51 25 -76q23 -20 74 -20q96 0 96 94q0 79 -72 88l64 178q6 15 6 27q0 20 -23 20h-51l-74 -166q-20 -46 -30 -73 q-15 -47 -15 -72z" />
<glyph unicode="&#x201d;" horiz-adv-x="700" d="M106 1329q0 -76 72 -88l-63 -178q-6 -15 -6 -27q0 -20 22 -20h51l74 166q23 48 31 73q14 38 14 72q0 54 -25 76q-20 20 -73 20q-97 0 -97 -94zM399 1329q0 -76 72 -88l-63 -178q-7 -17 -7 -27q0 -20 23 -20h51l74 166q23 48 31 73q14 38 14 72q0 54 -25 76q-20 20 -73 20 q-97 0 -97 -94z" />
<glyph unicode="&#x201e;" horiz-adv-x="700" d="M106 92q0 -76 72 -88l-63 -178q-6 -15 -6 -27q0 -20 22 -20h51l74 166q23 48 31 73q14 38 14 72q0 54 -25 76q-20 20 -73 20q-97 0 -97 -94zM399 92q0 -76 72 -88l-63 -178q-7 -18 -7 -27q0 -20 23 -20h51l74 166q23 48 31 73q14 38 14 72q0 54 -25 76q-20 20 -73 20 q-97 0 -97 -94z" />
<glyph unicode="&#x2022;" horiz-adv-x="815" d="M164 707q0 -127 61 -185q61 -55 183 -55q119 0 182 57q61 58 61 183q0 129 -61 184q-58 55 -182 55q-123 0 -183 -57q-61 -55 -61 -182z" />
<glyph unicode="&#x2026;" horiz-adv-x="1370" d="M131 86q0 -51 23 -74q27 -20 73 -20q49 0 76 20q23 20 23 74t-25 76q-20 20 -74 20q-51 0 -73 -22q-23 -20 -23 -74zM588 86q0 -52 22 -74q27 -20 74 -20q49 0 76 20q22 19 22 74t-24 76q-20 20 -74 20q-52 0 -74 -22q-22 -19 -22 -74zM1044 86q0 -51 23 -74 q27 -20 74 -20q49 0 76 20q22 19 22 74q0 54 -25 76q-20 20 -73 20q-52 0 -74 -22q-23 -20 -23 -74z" />
<glyph unicode="&#x202f;" horiz-adv-x="372" />
<glyph unicode="&#x2039;" horiz-adv-x="477" d="M92 530l168 -358q7 -14 19 -20q10 -5 26 -5h84l-178 383l166 338q12 20 2 33q-6 12 -21 12h-77z" />
<glyph unicode="&#x203a;" horiz-adv-x="477" d="M88 913l178 -383l-166 -337q-9 -19 -2 -33q10 -13 21 -13h78l188 383l-168 359q-5 14 -18 20q-8 4 -27 4h-84z" />
<glyph unicode="&#x205f;" horiz-adv-x="465" />
<glyph unicode="&#x20ac;" d="M88 528q0 -30 31 -30h121q12 -125 47 -226q37 -99 94 -161q58 -61 147 -97q94 -32 209 -32q91 0 176 16q108 24 134 33v55q0 33 -35 33q-32 0 -99 -15q-75 -14 -165 -14q-72 0 -144 16q-61 17 -112 62q-47 44 -84 123q-32 74 -48 207h459v61q0 31 -31 31h-436 q0 10 -1 29.5t-1 29.5v62v55q0 9 1 27t1 26h467v62q0 30 -31 30h-430q11 105 41 189q30 79 74 123q50 50 113 67q68 21 153 21t158 -11q93 -11 137 -20v59q0 35 -28 43q-46 18 -127 27q-66 10 -148 10q-228 0 -348 -123q-116 -122 -143 -385h-152v-61q0 -31 31 -31h112 q0 -9 -1 -29t-1 -30v-60v-57q0 -9 1 -26.5t1 -26.5h-143v-62z" />
<glyph unicode="&#x2122;" horiz-adv-x="1476" d="M47 1362q0 -12 7.5 -19.5t19.5 -7.5h213v-653q0 -27 26 -27h64v680h237v58q0 26 -26 26h-541v-57zM680 682q0 -12 7.5 -19.5t19.5 -7.5h63q2 93 10 320q11 201 13 317l184 -426q9 -24 33 -24h49l196 450q1 -29 6 -137.5t7 -171.5q6 -102 10 -301q0 -12 7.5 -19.5 t19.5 -7.5h59q-6 339 -31 738q0 26 -26 26h-74l-207 -465l-190 439q-9 26 -33 26h-92q-3 -75 -10 -208t-9 -173q-5 -151 -12 -356z" />
<glyph unicode="&#x25fc;" horiz-adv-x="1034" d="M0 0v1034h1034v-1034h-1034z" />
<glyph unicode="&#xfb01;" horiz-adv-x="985" d="M78 963q0 -31 31 -31h92v-901q0 -31 30 -31h84v932h416v-901q0 -31 31 -31h84v999q0 31 -31 31h-500v195q0 82 25 127q22 43 109 43h28q19 0 27 -2q9 0 33 -4q3 0 43 -5v54q0 12 -5 20q-3 12 -18 17q-24 11 -70 14q-27 4 -59 4q-70 0 -111 -20q-41 -17 -69 -56 q-26 -38 -37 -82q-10 -52 -10 -100v-205h-123v-67zM705 1315q0 -46 20 -66q21 -18 63 -18q46 0 64 18q20 17 20 66q0 48 -20 65q-19 19 -64 19q-41 0 -63 -19q-20 -20 -20 -65z" />
<glyph unicode="&#xfb02;" horiz-adv-x="1081" d="M78 963q0 -31 31 -31h92v-901q0 -31 30 -31h84v932h416v-750q0 -84 43 -139q42 -51 129 -51q32 0 62 6q13 2 30.5 4.5t20.5 3.5v55q0 12 -6 21q-4 8 -23 8h-43q-50 0 -76 16q-22 16 -22 80v1254q0 30 -31 30h-84v-440h-416v195q0 82 25 127q22 43 109 43h28q19 0 27 -2 q9 0 33 -4q3 0 43 -5v54q0 12 -5 20q-3 12 -18 17q-24 11 -70 14q-27 4 -59 4q-70 0 -111 -20q-41 -17 -69 -56q-26 -38 -37 -82q-10 -52 -10 -100v-205h-123v-67z" />
</font>
</defs>
</svg>
